%TF.GenerationSoftware,KiCad,Pcbnew,7.0.8*%
%TF.CreationDate,2023-11-19T15:13:28+01:00*%
%TF.ProjectId,AetherPhylax,41657468-6572-4506-9879-6c61782e6b69,rev?*%
%TF.SameCoordinates,Original*%
%TF.FileFunction,Copper,L2,Bot*%
%TF.FilePolarity,Positive*%
%FSLAX46Y46*%
G04 Gerber Fmt 4.6, Leading zero omitted, Abs format (unit mm)*
G04 Created by KiCad (PCBNEW 7.0.8) date 2023-11-19 15:13:28*
%MOMM*%
%LPD*%
G01*
G04 APERTURE LIST*
G04 Aperture macros list*
%AMRoundRect*
0 Rectangle with rounded corners*
0 $1 Rounding radius*
0 $2 $3 $4 $5 $6 $7 $8 $9 X,Y pos of 4 corners*
0 Add a 4 corners polygon primitive as box body*
4,1,4,$2,$3,$4,$5,$6,$7,$8,$9,$2,$3,0*
0 Add four circle primitives for the rounded corners*
1,1,$1+$1,$2,$3*
1,1,$1+$1,$4,$5*
1,1,$1+$1,$6,$7*
1,1,$1+$1,$8,$9*
0 Add four rect primitives between the rounded corners*
20,1,$1+$1,$2,$3,$4,$5,0*
20,1,$1+$1,$4,$5,$6,$7,0*
20,1,$1+$1,$6,$7,$8,$9,0*
20,1,$1+$1,$8,$9,$2,$3,0*%
G04 Aperture macros list end*
%TA.AperFunction,ComponentPad*%
%ADD10R,0.850000X0.850000*%
%TD*%
%TA.AperFunction,ComponentPad*%
%ADD11C,5.600000*%
%TD*%
%TA.AperFunction,SMDPad,CuDef*%
%ADD12R,1.050000X1.000000*%
%TD*%
%TA.AperFunction,SMDPad,CuDef*%
%ADD13R,2.200000X1.050000*%
%TD*%
%TA.AperFunction,SMDPad,CuDef*%
%ADD14RoundRect,0.250000X0.650000X-0.325000X0.650000X0.325000X-0.650000X0.325000X-0.650000X-0.325000X0*%
%TD*%
%TA.AperFunction,SMDPad,CuDef*%
%ADD15RoundRect,0.317500X-1.157500X-0.317500X1.157500X-0.317500X1.157500X0.317500X-1.157500X0.317500X0*%
%TD*%
%TA.AperFunction,SMDPad,CuDef*%
%ADD16RoundRect,0.250000X0.250000X0.475000X-0.250000X0.475000X-0.250000X-0.475000X0.250000X-0.475000X0*%
%TD*%
%TA.AperFunction,SMDPad,CuDef*%
%ADD17R,0.740000X2.400000*%
%TD*%
%TA.AperFunction,ViaPad*%
%ADD18C,0.700000*%
%TD*%
%TA.AperFunction,ViaPad*%
%ADD19C,0.500000*%
%TD*%
%TA.AperFunction,Conductor*%
%ADD20C,0.250000*%
%TD*%
%TA.AperFunction,Conductor*%
%ADD21C,0.400000*%
%TD*%
G04 APERTURE END LIST*
D10*
%TO.P,J1,1,Pin_1*%
%TO.N,VDD*%
X145050000Y-93950000D03*
%TD*%
%TO.P,J2,1,Pin_1*%
%TO.N,GND*%
X161250000Y-93850000D03*
%TD*%
D11*
%TO.P,H2,1,1*%
%TO.N,unconnected-(H2-Pad1)*%
X166550000Y-93750000D03*
%TD*%
%TO.P,H1,1,1*%
%TO.N,unconnected-(H1-Pad1)*%
X138550000Y-93750000D03*
%TD*%
D12*
%TO.P,ANT1,1,In*%
%TO.N,Net-(ANT1-In)*%
X165100000Y-71450000D03*
D13*
%TO.P,ANT1,2,Ext*%
%TO.N,GND*%
X166625000Y-69975000D03*
X166625000Y-72925000D03*
%TD*%
D14*
%TO.P,C4,1*%
%TO.N,+3V3*%
X163950000Y-79225000D03*
%TO.P,C4,2*%
%TO.N,GND*%
X163950000Y-76275000D03*
%TD*%
D15*
%TO.P,U4,1,GND*%
%TO.N,GND*%
X145625000Y-85350000D03*
%TO.P,U4,2,MISO*%
%TO.N,MISO*%
X145625000Y-83350000D03*
%TO.P,U4,3,MOSI*%
%TO.N,MOSI*%
X145625000Y-81350000D03*
%TO.P,U4,4,SCK*%
%TO.N,SCK*%
X145625000Y-79350000D03*
%TO.P,U4,5,NSS*%
%TO.N,CS*%
X145625000Y-77350000D03*
%TO.P,U4,6,RESET*%
%TO.N,RST*%
X145625000Y-75350000D03*
%TO.P,U4,7,DIO5*%
%TO.N,unconnected-(U4-DIO5-Pad7)*%
X145625000Y-73350000D03*
%TO.P,U4,8,GND*%
%TO.N,GND*%
X145625000Y-71350000D03*
%TO.P,U4,9,ANT*%
%TO.N,Net-(ANT1-In)*%
X160675000Y-71350000D03*
%TO.P,U4,10,GND*%
%TO.N,GND*%
X160675000Y-73350000D03*
%TO.P,U4,11,DIO3*%
%TO.N,unconnected-(U4-DIO3-Pad11)*%
X160675000Y-75350000D03*
%TO.P,U4,12,DIO4*%
%TO.N,unconnected-(U4-DIO4-Pad12)*%
X160675000Y-77350000D03*
%TO.P,U4,13,3.3V*%
%TO.N,+3V3*%
X160675000Y-79350000D03*
%TO.P,U4,14,DIO0*%
%TO.N,INT*%
X160675000Y-81350000D03*
%TO.P,U4,15,DIO1*%
%TO.N,unconnected-(U4-DIO1-Pad15)*%
X160675000Y-83350000D03*
%TO.P,U4,16,DIO2*%
%TO.N,unconnected-(U4-DIO2-Pad16)*%
X160675000Y-85350000D03*
%TD*%
D16*
%TO.P,JP2,1,A*%
%TO.N,GND*%
X167650000Y-81750000D03*
%TO.P,JP2,2,C*%
%TO.N,PA0*%
X165750000Y-81750000D03*
%TO.P,JP2,3,B*%
%TO.N,+3V3*%
X163850000Y-81750000D03*
%TD*%
D17*
%TO.P,DEBUG1,1,Pin_1*%
%TO.N,SWDIO*%
X139920000Y-75800000D03*
%TO.P,DEBUG1,2,Pin_2*%
%TO.N,SWCLK*%
X139920000Y-71900000D03*
%TO.P,DEBUG1,3,Pin_3*%
%TO.N,GND*%
X138650000Y-75800000D03*
%TO.P,DEBUG1,4,Pin_4*%
%TO.N,TX*%
X138650000Y-71900000D03*
%TO.P,DEBUG1,5,Pin_5*%
%TO.N,RX*%
X137380000Y-75800000D03*
%TO.P,DEBUG1,6,Pin_6*%
%TO.N,GND*%
X137380000Y-71900000D03*
%TD*%
D18*
%TO.N,GND*%
X156250000Y-90050000D03*
X142450000Y-68550000D03*
D19*
X155950000Y-88150000D03*
D18*
X151750000Y-76550000D03*
X152650000Y-82950000D03*
X162650000Y-68550000D03*
D19*
X152550000Y-90950000D03*
X153750000Y-89750000D03*
X152550000Y-89750000D03*
D18*
X153850000Y-74150000D03*
X163750000Y-72250000D03*
X153950000Y-76550000D03*
X157364115Y-80525536D03*
X151750000Y-74150000D03*
D19*
X153750000Y-90950000D03*
D18*
X151650000Y-82950000D03*
X162650000Y-69350000D03*
X152850000Y-76550000D03*
X157050000Y-72550000D03*
X161350000Y-90050000D03*
X152850000Y-74150000D03*
X157850000Y-72550000D03*
X153650000Y-82950000D03*
X158050000Y-79750000D03*
X162950000Y-72250000D03*
X142450000Y-69350000D03*
%TO.N,+BATT*%
X162950000Y-88350000D03*
X153112394Y-86945735D03*
%TO.N,+3V3*%
X165850000Y-76650000D03*
X157350000Y-83950000D03*
D19*
%TO.N,Net-(U3-~{RST}{slash}PF2)*%
X153744154Y-78856620D03*
X150043380Y-78856620D03*
%TO.N,VDD*%
X157550000Y-77150000D03*
X143150000Y-85050000D03*
%TO.N,SCL*%
X147800000Y-72287534D03*
X151199500Y-63075000D03*
%TO.N,SDA*%
X148609415Y-72264946D03*
X152250000Y-60650500D03*
%TO.N,PA0*%
X164750000Y-80450000D03*
%TO.N,SCK*%
X155543767Y-77856233D03*
%TO.N,MOSI*%
X156250000Y-77750000D03*
%TO.N,RST*%
X156256233Y-76943767D03*
%TO.N,CS*%
X156257188Y-76140416D03*
%TO.N,INT*%
X157856688Y-75550000D03*
%TO.N,MISO*%
X157250000Y-74990916D03*
%TO.N,SWDIO*%
X147713569Y-75924500D03*
%TO.N,SWCLK*%
X149350000Y-73250000D03*
%TO.N,TX*%
X149250000Y-74350000D03*
%TO.N,RX*%
X149350000Y-76750000D03*
%TO.N,/VSTOR*%
X149850000Y-90750000D03*
X150350000Y-92050000D03*
X150850000Y-87150000D03*
%TD*%
D20*
%TO.N,Net-(ANT1-In)*%
X160775000Y-71450000D02*
X160675000Y-71350000D01*
X165100000Y-71450000D02*
X160775000Y-71450000D01*
D21*
%TO.N,+BATT*%
X162950000Y-88350000D02*
X161950000Y-87350000D01*
X161950000Y-87350000D02*
X153516659Y-87350000D01*
X153516659Y-87350000D02*
X153112394Y-86945735D01*
%TO.N,+3V3*%
X165850000Y-78750000D02*
X165375000Y-79225000D01*
X163950000Y-86375760D02*
X163950000Y-79225000D01*
X163950000Y-79225000D02*
X160800000Y-79225000D01*
X159227122Y-86385000D02*
X163940760Y-86385000D01*
X157350000Y-84507878D02*
X159227122Y-86385000D01*
X165375000Y-79225000D02*
X163950000Y-79225000D01*
X163940760Y-86385000D02*
X163950000Y-86375760D01*
X157350000Y-83950000D02*
X157350000Y-84507878D01*
X160800000Y-79225000D02*
X160675000Y-79350000D01*
X165850000Y-76650000D02*
X165850000Y-78750000D01*
D20*
%TO.N,Net-(U3-~{RST}{slash}PF2)*%
X153744154Y-78856620D02*
X150043380Y-78856620D01*
X149950000Y-78950000D02*
X150043380Y-78856620D01*
%TO.N,VDD*%
X156222792Y-80350000D02*
X148550000Y-80350000D01*
X147875000Y-83625000D02*
X147110000Y-84390000D01*
X147875000Y-81025000D02*
X147875000Y-83625000D01*
X143810000Y-84390000D02*
X143150000Y-85050000D01*
X157550000Y-79022792D02*
X156222792Y-80350000D01*
X157550000Y-77150000D02*
X157550000Y-79022792D01*
X147110000Y-84390000D02*
X143810000Y-84390000D01*
X148550000Y-80350000D02*
X147875000Y-81025000D01*
%TO.N,SCL*%
X147800000Y-72287534D02*
X147800000Y-72159267D01*
X147800000Y-72159267D02*
X151199500Y-68759767D01*
X151199500Y-68759767D02*
X151199500Y-63075000D01*
%TO.N,SDA*%
X151947508Y-68940527D02*
X151947508Y-60952992D01*
X148623089Y-72264946D02*
X151947508Y-68940527D01*
X148609415Y-72264946D02*
X148623089Y-72264946D01*
X151947508Y-60952992D02*
X152250000Y-60650500D01*
%TO.N,PA0*%
X165750000Y-80650000D02*
X165750000Y-81750000D01*
X165550000Y-80450000D02*
X165750000Y-80650000D01*
X164750000Y-80450000D02*
X165550000Y-80450000D01*
%TO.N,SCK*%
X147100000Y-79350000D02*
X145625000Y-79350000D01*
X155537534Y-77850000D02*
X148600000Y-77850000D01*
X155543767Y-77856233D02*
X155537534Y-77850000D01*
X148600000Y-77850000D02*
X147100000Y-79350000D01*
%TO.N,MOSI*%
X146075906Y-81350000D02*
X145625000Y-81350000D01*
X156250000Y-79050000D02*
X155850000Y-79450000D01*
X156250000Y-77750000D02*
X156250000Y-79050000D01*
X147975906Y-79450000D02*
X146075906Y-81350000D01*
X155850000Y-79450000D02*
X147975906Y-79450000D01*
%TO.N,RST*%
X156832188Y-76378589D02*
X156832188Y-75543211D01*
X156832188Y-75543211D02*
X156638977Y-75350000D01*
X156267010Y-76943767D02*
X156832188Y-76378589D01*
X156256233Y-76943767D02*
X156267010Y-76943767D01*
X156638977Y-75350000D02*
X145625000Y-75350000D01*
%TO.N,CS*%
X147250000Y-77350000D02*
X145625000Y-77350000D01*
X155966772Y-75850000D02*
X148750000Y-75850000D01*
X156257188Y-76140416D02*
X155966772Y-75850000D01*
X148750000Y-75850000D02*
X147250000Y-77350000D01*
%TO.N,INT*%
X158850000Y-80050000D02*
X160150000Y-81350000D01*
X157856688Y-75550000D02*
X158850000Y-76543312D01*
X160150000Y-81350000D02*
X160675000Y-81350000D01*
X158850000Y-76543312D02*
X158850000Y-80050000D01*
%TO.N,MISO*%
X156036396Y-79900000D02*
X156831233Y-79105163D01*
X147425000Y-82875000D02*
X147425000Y-80675000D01*
X156831233Y-79105163D02*
X156831233Y-77015940D01*
X157282188Y-76564985D02*
X157282188Y-75023104D01*
X148200000Y-79900000D02*
X156036396Y-79900000D01*
X147425000Y-80675000D02*
X148200000Y-79900000D01*
X157282188Y-75023104D02*
X157250000Y-74990916D01*
X146950000Y-83350000D02*
X147425000Y-82875000D01*
X145625000Y-83350000D02*
X146950000Y-83350000D01*
X156831233Y-77015940D02*
X157282188Y-76564985D01*
%TO.N,SWDIO*%
X147203569Y-76310000D02*
X140430000Y-76310000D01*
X147589069Y-75924500D02*
X147203569Y-76310000D01*
X147713569Y-75924500D02*
X147589069Y-75924500D01*
X140430000Y-76310000D02*
X139920000Y-75800000D01*
%TO.N,SWCLK*%
X140410000Y-72390000D02*
X139920000Y-71900000D01*
X147090000Y-72390000D02*
X140410000Y-72390000D01*
X147950000Y-73250000D02*
X147090000Y-72390000D01*
X149350000Y-73250000D02*
X147950000Y-73250000D01*
%TO.N,TX*%
X138975000Y-73425000D02*
X140424620Y-73425000D01*
X138650000Y-71900000D02*
X138650000Y-73100000D01*
X140424620Y-73425000D02*
X141309620Y-74310000D01*
X138650000Y-73100000D02*
X138975000Y-73425000D01*
X149210000Y-74310000D02*
X149250000Y-74350000D01*
X141309620Y-74310000D02*
X149210000Y-74310000D01*
%TO.N,RX*%
X149350000Y-76750000D02*
X148681812Y-76750000D01*
X147081812Y-78350000D02*
X139170380Y-78350000D01*
X148681812Y-76750000D02*
X147081812Y-78350000D01*
X139170380Y-78350000D02*
X137380000Y-76559620D01*
X137380000Y-76559620D02*
X137380000Y-75800000D01*
%TO.N,/VSTOR*%
X150850000Y-88350000D02*
X149850000Y-89350000D01*
X149850000Y-89350000D02*
X149850000Y-91550000D01*
X150850000Y-87150000D02*
X150850000Y-88350000D01*
X149850000Y-91550000D02*
X150350000Y-92050000D01*
%TD*%
%TA.AperFunction,Conductor*%
%TO.N,GND*%
G36*
X150093039Y-67570185D02*
G01*
X150138794Y-67622989D01*
X150143188Y-67643188D01*
X150150000Y-67650000D01*
X150750000Y-67650000D01*
X150817039Y-67669685D01*
X150862794Y-67722489D01*
X150874000Y-67774000D01*
X150874000Y-68573578D01*
X150854315Y-68640617D01*
X150837681Y-68661259D01*
X147653400Y-71845539D01*
X147617236Y-71870650D01*
X147610930Y-71873529D01*
X147586694Y-71889105D01*
X147519654Y-71908788D01*
X147452615Y-71889102D01*
X147406861Y-71836297D01*
X147397509Y-71771241D01*
X147396748Y-71771182D01*
X147397014Y-71767795D01*
X147396920Y-71767138D01*
X147397202Y-71765407D01*
X147400000Y-71729865D01*
X147400000Y-71600000D01*
X143850001Y-71600000D01*
X143850001Y-71729861D01*
X143852754Y-71764862D01*
X143893731Y-71905905D01*
X143893531Y-71975775D01*
X143855588Y-72034445D01*
X143791950Y-72063288D01*
X143774654Y-72064500D01*
X140614500Y-72064500D01*
X140547461Y-72044815D01*
X140501706Y-71992011D01*
X140490500Y-71940500D01*
X140490500Y-71100000D01*
X143850000Y-71100000D01*
X145375000Y-71100000D01*
X145375000Y-70415000D01*
X145875000Y-70415000D01*
X145875000Y-71100000D01*
X147399999Y-71100000D01*
X147399999Y-70970139D01*
X147397245Y-70935137D01*
X147353716Y-70785310D01*
X147274301Y-70651025D01*
X147274294Y-70651016D01*
X147163983Y-70540705D01*
X147163974Y-70540698D01*
X147029688Y-70461282D01*
X147029683Y-70461280D01*
X146879870Y-70417755D01*
X146879864Y-70417754D01*
X146844865Y-70415000D01*
X145875000Y-70415000D01*
X145375000Y-70415000D01*
X145374999Y-70415000D01*
X144405139Y-70415001D01*
X144370137Y-70417754D01*
X144220310Y-70461283D01*
X144086025Y-70540698D01*
X144086016Y-70540705D01*
X143975705Y-70651016D01*
X143975698Y-70651025D01*
X143896282Y-70785311D01*
X143896280Y-70785316D01*
X143852755Y-70935129D01*
X143852754Y-70935135D01*
X143850000Y-70970135D01*
X143850000Y-71100000D01*
X140490500Y-71100000D01*
X140490500Y-70680249D01*
X140490499Y-70680247D01*
X140478868Y-70621770D01*
X140478867Y-70621769D01*
X140434552Y-70555447D01*
X140368230Y-70511132D01*
X140368229Y-70511131D01*
X140309752Y-70499500D01*
X140309748Y-70499500D01*
X139530252Y-70499500D01*
X139530247Y-70499500D01*
X139471770Y-70511131D01*
X139471769Y-70511132D01*
X139405447Y-70555447D01*
X139388102Y-70581407D01*
X139334489Y-70626212D01*
X139265164Y-70634919D01*
X139202137Y-70604764D01*
X139181898Y-70581407D01*
X139164552Y-70555447D01*
X139098230Y-70511132D01*
X139098229Y-70511131D01*
X139039752Y-70499500D01*
X139039748Y-70499500D01*
X138260252Y-70499500D01*
X138260247Y-70499500D01*
X138201770Y-70511131D01*
X138201767Y-70511133D01*
X138156675Y-70541262D01*
X138089997Y-70562139D01*
X138022618Y-70543653D01*
X138000105Y-70525840D01*
X137922479Y-70448214D01*
X137922474Y-70448211D01*
X137819876Y-70402910D01*
X137794794Y-70400000D01*
X137630000Y-70400000D01*
X137630000Y-73399999D01*
X137794786Y-73399999D01*
X137794808Y-73399997D01*
X137819869Y-73397091D01*
X137819873Y-73397090D01*
X137922474Y-73351788D01*
X137922475Y-73351788D01*
X138000104Y-73274159D01*
X138061427Y-73240674D01*
X138131119Y-73245658D01*
X138156676Y-73258738D01*
X138201766Y-73288866D01*
X138201770Y-73288868D01*
X138260247Y-73300499D01*
X138260250Y-73300500D01*
X138260252Y-73300500D01*
X138337426Y-73300500D01*
X138404465Y-73320185D01*
X138417129Y-73329508D01*
X138427813Y-73338473D01*
X138431804Y-73342130D01*
X138732868Y-73643195D01*
X138736523Y-73647184D01*
X138762541Y-73678190D01*
X138762542Y-73678191D01*
X138762545Y-73678194D01*
X138791387Y-73694845D01*
X138797604Y-73698435D01*
X138802154Y-73701333D01*
X138835316Y-73724553D01*
X138835318Y-73724553D01*
X138835319Y-73724554D01*
X138840168Y-73726815D01*
X138856947Y-73733765D01*
X138861952Y-73735587D01*
X138861953Y-73735587D01*
X138861955Y-73735588D01*
X138901829Y-73742618D01*
X138907092Y-73743786D01*
X138918907Y-73746951D01*
X138946193Y-73754263D01*
X138986510Y-73750735D01*
X138991912Y-73750500D01*
X140238432Y-73750500D01*
X140305471Y-73770185D01*
X140326113Y-73786819D01*
X141067483Y-74528189D01*
X141071138Y-74532178D01*
X141097161Y-74563190D01*
X141097163Y-74563191D01*
X141097165Y-74563194D01*
X141097167Y-74563195D01*
X141097168Y-74563196D01*
X141132219Y-74583433D01*
X141136782Y-74586339D01*
X141169936Y-74609554D01*
X141169939Y-74609554D01*
X141174796Y-74611820D01*
X141191553Y-74618760D01*
X141196570Y-74620586D01*
X141196572Y-74620586D01*
X141196575Y-74620588D01*
X141236438Y-74627616D01*
X141241696Y-74628782D01*
X141280813Y-74639264D01*
X141321138Y-74635735D01*
X141326542Y-74635500D01*
X143885042Y-74635500D01*
X143952081Y-74655185D01*
X143997836Y-74707989D01*
X144007780Y-74777147D01*
X144000396Y-74804990D01*
X143959498Y-74908698D01*
X143959496Y-74908704D01*
X143949500Y-74991947D01*
X143949500Y-75708052D01*
X143959496Y-75791295D01*
X143959497Y-75791298D01*
X143968848Y-75815009D01*
X143975130Y-75884596D01*
X143942794Y-75946532D01*
X143882105Y-75981154D01*
X143853494Y-75984500D01*
X140616188Y-75984500D01*
X140549149Y-75964815D01*
X140528507Y-75948181D01*
X140526819Y-75946493D01*
X140493334Y-75885170D01*
X140490500Y-75858812D01*
X140490500Y-74580249D01*
X140490499Y-74580247D01*
X140478868Y-74521770D01*
X140478867Y-74521769D01*
X140434552Y-74455447D01*
X140368230Y-74411132D01*
X140368229Y-74411131D01*
X140309752Y-74399500D01*
X140309748Y-74399500D01*
X139530252Y-74399500D01*
X139530247Y-74399500D01*
X139471770Y-74411131D01*
X139471767Y-74411133D01*
X139426675Y-74441262D01*
X139359997Y-74462139D01*
X139292618Y-74443653D01*
X139270105Y-74425840D01*
X139192479Y-74348214D01*
X139192474Y-74348211D01*
X139089876Y-74302910D01*
X139064794Y-74300000D01*
X138900000Y-74300000D01*
X138900000Y-75926000D01*
X138880315Y-75993039D01*
X138827511Y-76038794D01*
X138776000Y-76050000D01*
X138524000Y-76050000D01*
X138456961Y-76030315D01*
X138411206Y-75977511D01*
X138400000Y-75926000D01*
X138400000Y-74300000D01*
X138235214Y-74300000D01*
X138235191Y-74300002D01*
X138210130Y-74302908D01*
X138210126Y-74302909D01*
X138107525Y-74348211D01*
X138107523Y-74348212D01*
X138029894Y-74425841D01*
X137968570Y-74459325D01*
X137898879Y-74454341D01*
X137873323Y-74441262D01*
X137839547Y-74418694D01*
X137828231Y-74411133D01*
X137828230Y-74411132D01*
X137828229Y-74411132D01*
X137828229Y-74411131D01*
X137769752Y-74399500D01*
X137769748Y-74399500D01*
X136990252Y-74399500D01*
X136990247Y-74399500D01*
X136931770Y-74411131D01*
X136931769Y-74411132D01*
X136865447Y-74455447D01*
X136821132Y-74521769D01*
X136821131Y-74521770D01*
X136809500Y-74580247D01*
X136809500Y-77019752D01*
X136821131Y-77078229D01*
X136821132Y-77078230D01*
X136865447Y-77144552D01*
X136931769Y-77188867D01*
X136931770Y-77188868D01*
X136990247Y-77200499D01*
X136990250Y-77200500D01*
X136990252Y-77200500D01*
X137509192Y-77200500D01*
X137576231Y-77220185D01*
X137596873Y-77236819D01*
X138928243Y-78568189D01*
X138931898Y-78572178D01*
X138957921Y-78603190D01*
X138957923Y-78603191D01*
X138957925Y-78603194D01*
X138957927Y-78603195D01*
X138957928Y-78603196D01*
X138992979Y-78623433D01*
X138997542Y-78626339D01*
X139030696Y-78649554D01*
X139030699Y-78649554D01*
X139035556Y-78651820D01*
X139052313Y-78658760D01*
X139057333Y-78660587D01*
X139057335Y-78660588D01*
X139093186Y-78666909D01*
X139097188Y-78667615D01*
X139102460Y-78668783D01*
X139141573Y-78679264D01*
X139181902Y-78675735D01*
X139187304Y-78675500D01*
X143869268Y-78675500D01*
X143936307Y-78695185D01*
X143982062Y-78747989D01*
X143992006Y-78817147D01*
X143984622Y-78844990D01*
X143959498Y-78908698D01*
X143959496Y-78908704D01*
X143949500Y-78991947D01*
X143949500Y-79708052D01*
X143959496Y-79791295D01*
X144011736Y-79923766D01*
X144097774Y-80037225D01*
X144207901Y-80120736D01*
X144211236Y-80123265D01*
X144343703Y-80175503D01*
X144426948Y-80185500D01*
X146480718Y-80185500D01*
X146547757Y-80205185D01*
X146593512Y-80257989D01*
X146603456Y-80327147D01*
X146574431Y-80390703D01*
X146568399Y-80397181D01*
X146487399Y-80478181D01*
X146426076Y-80511666D01*
X146399718Y-80514500D01*
X144426948Y-80514500D01*
X144343704Y-80524496D01*
X144211233Y-80576736D01*
X144097774Y-80662774D01*
X144011736Y-80776233D01*
X143959496Y-80908704D01*
X143949500Y-80991947D01*
X143949500Y-81708052D01*
X143959496Y-81791295D01*
X144011736Y-81923766D01*
X144097774Y-82037225D01*
X144150499Y-82077207D01*
X144211236Y-82123265D01*
X144343703Y-82175503D01*
X144426948Y-82185500D01*
X146823052Y-82185500D01*
X146906297Y-82175503D01*
X146930009Y-82166151D01*
X146999596Y-82159870D01*
X147061532Y-82192206D01*
X147096154Y-82252895D01*
X147099500Y-82281506D01*
X147099500Y-82418493D01*
X147079815Y-82485532D01*
X147027011Y-82531287D01*
X146957853Y-82541231D01*
X146930013Y-82533849D01*
X146906297Y-82524497D01*
X146906295Y-82524496D01*
X146823052Y-82514500D01*
X144426948Y-82514500D01*
X144343704Y-82524496D01*
X144211233Y-82576736D01*
X144097774Y-82662774D01*
X144011736Y-82776233D01*
X143959496Y-82908704D01*
X143949500Y-82991947D01*
X143949500Y-83708052D01*
X143959496Y-83791295D01*
X143959498Y-83791301D01*
X144000396Y-83895010D01*
X144006678Y-83964597D01*
X143974341Y-84026533D01*
X143913653Y-84061154D01*
X143885042Y-84064500D01*
X143826922Y-84064500D01*
X143821518Y-84064264D01*
X143816107Y-84063790D01*
X143781192Y-84060735D01*
X143781191Y-84060735D01*
X143742091Y-84071212D01*
X143736811Y-84072383D01*
X143696959Y-84079410D01*
X143691961Y-84081229D01*
X143675117Y-84088206D01*
X143670313Y-84090446D01*
X143637166Y-84113656D01*
X143632606Y-84116562D01*
X143597548Y-84136804D01*
X143597545Y-84136806D01*
X143597543Y-84136808D01*
X143597541Y-84136810D01*
X143571524Y-84167815D01*
X143567868Y-84171804D01*
X143365230Y-84374444D01*
X143176493Y-84563181D01*
X143115170Y-84596666D01*
X143088812Y-84599500D01*
X143085226Y-84599500D01*
X142960935Y-84635994D01*
X142960932Y-84635995D01*
X142960931Y-84635996D01*
X142919264Y-84662774D01*
X142851950Y-84706033D01*
X142767118Y-84803937D01*
X142767117Y-84803938D01*
X142713302Y-84921774D01*
X142694867Y-85050000D01*
X142713302Y-85178225D01*
X142765090Y-85291623D01*
X142767118Y-85296063D01*
X142851951Y-85393967D01*
X142960931Y-85464004D01*
X143085225Y-85500499D01*
X143085227Y-85500500D01*
X143085228Y-85500500D01*
X143214773Y-85500500D01*
X143214773Y-85500499D01*
X143339069Y-85464004D01*
X143448049Y-85393967D01*
X143532882Y-85296063D01*
X143586697Y-85178226D01*
X143598387Y-85096914D01*
X143627409Y-85033361D01*
X143633437Y-85026887D01*
X143638328Y-85021996D01*
X143699654Y-84988518D01*
X143769345Y-84993510D01*
X143825275Y-85035387D01*
X143848989Y-85098989D01*
X143850000Y-85100000D01*
X147399999Y-85100000D01*
X147399999Y-84970139D01*
X147397245Y-84935137D01*
X147353716Y-84785309D01*
X147336269Y-84755808D01*
X147319085Y-84688085D01*
X147341244Y-84621822D01*
X147355313Y-84605011D01*
X148093210Y-83867115D01*
X148097172Y-83863484D01*
X148128194Y-83837455D01*
X148148444Y-83802379D01*
X148151328Y-83797852D01*
X148174554Y-83764684D01*
X148174554Y-83764681D01*
X148176819Y-83759824D01*
X148183747Y-83743099D01*
X148185587Y-83738046D01*
X148185588Y-83738045D01*
X148192621Y-83698150D01*
X148193777Y-83692937D01*
X148204263Y-83653807D01*
X148200735Y-83613489D01*
X148200500Y-83608086D01*
X148200500Y-81211188D01*
X148220185Y-81144149D01*
X148236819Y-81123507D01*
X148648508Y-80711819D01*
X148709831Y-80678334D01*
X148736189Y-80675500D01*
X156205870Y-80675500D01*
X156211273Y-80675735D01*
X156251599Y-80679264D01*
X156290732Y-80668777D01*
X156295954Y-80667619D01*
X156335837Y-80660588D01*
X156335842Y-80660584D01*
X156340891Y-80658747D01*
X156357616Y-80651819D01*
X156362473Y-80649554D01*
X156362476Y-80649554D01*
X156395633Y-80626335D01*
X156400182Y-80623438D01*
X156435247Y-80603194D01*
X156461273Y-80572176D01*
X156464914Y-80568202D01*
X157768204Y-79264912D01*
X157772166Y-79261281D01*
X157803194Y-79235247D01*
X157823438Y-79200182D01*
X157826335Y-79195633D01*
X157849554Y-79162476D01*
X157849554Y-79162473D01*
X157851819Y-79157616D01*
X157858747Y-79140891D01*
X157860584Y-79135842D01*
X157860588Y-79135837D01*
X157867619Y-79095954D01*
X157868777Y-79090732D01*
X157879264Y-79051599D01*
X157875735Y-79011270D01*
X157875500Y-79005867D01*
X157875500Y-77508535D01*
X157895185Y-77441496D01*
X157905783Y-77427336D01*
X157932882Y-77396063D01*
X157986697Y-77278226D01*
X158005133Y-77150000D01*
X157986697Y-77021774D01*
X157932882Y-76903937D01*
X157848049Y-76806033D01*
X157739069Y-76735996D01*
X157739067Y-76735995D01*
X157739065Y-76735994D01*
X157699963Y-76724513D01*
X157641185Y-76686739D01*
X157612160Y-76623183D01*
X157611370Y-76594722D01*
X157611449Y-76593799D01*
X157611452Y-76593792D01*
X157607923Y-76553463D01*
X157607688Y-76548060D01*
X157607688Y-76112050D01*
X157627373Y-76045011D01*
X157680177Y-75999256D01*
X157749335Y-75989312D01*
X157766610Y-75993069D01*
X157791916Y-76000500D01*
X157795500Y-76000500D01*
X157798939Y-76001509D01*
X157800693Y-76001762D01*
X157800656Y-76002014D01*
X157862539Y-76020185D01*
X157883181Y-76036819D01*
X158488181Y-76641819D01*
X158521666Y-76703142D01*
X158524500Y-76729500D01*
X158524500Y-80033078D01*
X158524264Y-80038485D01*
X158520735Y-80078808D01*
X158531212Y-80117910D01*
X158532383Y-80123190D01*
X158539411Y-80163043D01*
X158541235Y-80168055D01*
X158548197Y-80184861D01*
X158550445Y-80189681D01*
X158550446Y-80189684D01*
X158555433Y-80196806D01*
X158573655Y-80222831D01*
X158576561Y-80227392D01*
X158596806Y-80262455D01*
X158627815Y-80288475D01*
X158631805Y-80292131D01*
X159019546Y-80679872D01*
X159053031Y-80741195D01*
X159048047Y-80810887D01*
X159047220Y-80813042D01*
X159009497Y-80908702D01*
X159009496Y-80908704D01*
X158999500Y-80991947D01*
X158999500Y-81708052D01*
X159009496Y-81791295D01*
X159061736Y-81923766D01*
X159147774Y-82037225D01*
X159200499Y-82077207D01*
X159261236Y-82123265D01*
X159393703Y-82175503D01*
X159476948Y-82185500D01*
X161873052Y-82185500D01*
X161956297Y-82175503D01*
X162088764Y-82123265D01*
X162202225Y-82037225D01*
X162288265Y-81923764D01*
X162340503Y-81791297D01*
X162350500Y-81708052D01*
X162350500Y-80991948D01*
X162340503Y-80908703D01*
X162288265Y-80776236D01*
X162266488Y-80747518D01*
X162202225Y-80662774D01*
X162088766Y-80576736D01*
X162088764Y-80576735D01*
X161956297Y-80524497D01*
X161956296Y-80524496D01*
X161956295Y-80524496D01*
X161873052Y-80514500D01*
X159826188Y-80514500D01*
X159759149Y-80494815D01*
X159738507Y-80478181D01*
X159657507Y-80397181D01*
X159624022Y-80335858D01*
X159629006Y-80266166D01*
X159670878Y-80210233D01*
X159736342Y-80185816D01*
X159745188Y-80185500D01*
X161873052Y-80185500D01*
X161956297Y-80175503D01*
X162088764Y-80123265D01*
X162202225Y-80037225D01*
X162288265Y-79923764D01*
X162340503Y-79791297D01*
X162347298Y-79734714D01*
X162374835Y-79670501D01*
X162432718Y-79631368D01*
X162470413Y-79625500D01*
X162761153Y-79625500D01*
X162828192Y-79645185D01*
X162873947Y-79697989D01*
X162878187Y-79708528D01*
X162897207Y-79762882D01*
X162977850Y-79872150D01*
X163087118Y-79952793D01*
X163129845Y-79967744D01*
X163215299Y-79997646D01*
X163245730Y-80000500D01*
X163245734Y-80000500D01*
X163425500Y-80000500D01*
X163492539Y-80020185D01*
X163538294Y-80072989D01*
X163549500Y-80124500D01*
X163549500Y-80727404D01*
X163529815Y-80794443D01*
X163477011Y-80840198D01*
X163466456Y-80844445D01*
X163387117Y-80872207D01*
X163277850Y-80952850D01*
X163197207Y-81062117D01*
X163197206Y-81062119D01*
X163152353Y-81190298D01*
X163152353Y-81190300D01*
X163149500Y-81220730D01*
X163149500Y-82279269D01*
X163152353Y-82309699D01*
X163152353Y-82309701D01*
X163197206Y-82437880D01*
X163197207Y-82437882D01*
X163277850Y-82547150D01*
X163387118Y-82627793D01*
X163466458Y-82655555D01*
X163523231Y-82696275D01*
X163548978Y-82761228D01*
X163549500Y-82772595D01*
X163549500Y-85860500D01*
X163529815Y-85927539D01*
X163477011Y-85973294D01*
X163425500Y-85984500D01*
X162446506Y-85984500D01*
X162379467Y-85964815D01*
X162333712Y-85912011D01*
X162323768Y-85842853D01*
X162331152Y-85815009D01*
X162340503Y-85791297D01*
X162350500Y-85708052D01*
X162350500Y-84991948D01*
X162340503Y-84908703D01*
X162288265Y-84776236D01*
X162288263Y-84776233D01*
X162202225Y-84662774D01*
X162088766Y-84576736D01*
X162088764Y-84576735D01*
X161956297Y-84524497D01*
X161956296Y-84524496D01*
X161956295Y-84524496D01*
X161873052Y-84514500D01*
X159476948Y-84514500D01*
X159393704Y-84524496D01*
X159261233Y-84576736D01*
X159147774Y-84662774D01*
X159061736Y-84776233D01*
X159009496Y-84908704D01*
X158999500Y-84991947D01*
X158999500Y-85291623D01*
X158979815Y-85358662D01*
X158927011Y-85404417D01*
X158857853Y-85414361D01*
X158794297Y-85385336D01*
X158787819Y-85379304D01*
X157823212Y-84414697D01*
X157789727Y-84353374D01*
X157794711Y-84283682D01*
X157812516Y-84251532D01*
X157830861Y-84227625D01*
X157886330Y-84093709D01*
X157905250Y-83950000D01*
X157886330Y-83806291D01*
X157845639Y-83708052D01*
X158999500Y-83708052D01*
X159009496Y-83791295D01*
X159061736Y-83923766D01*
X159147774Y-84037225D01*
X159261233Y-84123263D01*
X159261236Y-84123265D01*
X159393703Y-84175503D01*
X159476948Y-84185500D01*
X161873052Y-84185500D01*
X161956297Y-84175503D01*
X162088764Y-84123265D01*
X162202225Y-84037225D01*
X162288265Y-83923764D01*
X162340503Y-83791297D01*
X162350500Y-83708052D01*
X162350500Y-82991948D01*
X162340503Y-82908703D01*
X162288265Y-82776236D01*
X162211875Y-82675500D01*
X162202225Y-82662774D01*
X162088766Y-82576736D01*
X162088764Y-82576735D01*
X161956297Y-82524497D01*
X161956296Y-82524496D01*
X161956295Y-82524496D01*
X161873052Y-82514500D01*
X159476948Y-82514500D01*
X159393704Y-82524496D01*
X159261233Y-82576736D01*
X159147774Y-82662774D01*
X159061736Y-82776233D01*
X159009496Y-82908704D01*
X158999500Y-82991947D01*
X158999500Y-83708052D01*
X157845639Y-83708052D01*
X157830861Y-83672375D01*
X157742621Y-83557379D01*
X157627625Y-83469139D01*
X157627624Y-83469138D01*
X157627622Y-83469137D01*
X157493712Y-83413671D01*
X157493710Y-83413670D01*
X157493709Y-83413670D01*
X157421854Y-83404210D01*
X157350001Y-83394750D01*
X157349999Y-83394750D01*
X157206291Y-83413670D01*
X157206287Y-83413671D01*
X157072377Y-83469137D01*
X156957379Y-83557379D01*
X156869137Y-83672377D01*
X156813671Y-83806287D01*
X156813670Y-83806291D01*
X156794750Y-83950000D01*
X156813240Y-84090446D01*
X156813670Y-84093708D01*
X156813671Y-84093712D01*
X156869138Y-84227623D01*
X156869139Y-84227625D01*
X156923875Y-84298957D01*
X156949070Y-84364125D01*
X156949500Y-84374444D01*
X156949500Y-84571307D01*
X156949501Y-84571317D01*
X156956346Y-84592385D01*
X156960887Y-84611296D01*
X156964354Y-84633182D01*
X156964355Y-84633185D01*
X156974412Y-84652923D01*
X156981857Y-84670896D01*
X156988704Y-84691968D01*
X157001726Y-84709892D01*
X157011890Y-84726478D01*
X157021950Y-84746220D01*
X157042864Y-84767134D01*
X157042893Y-84767165D01*
X158899072Y-86623342D01*
X158988780Y-86713050D01*
X158992633Y-86715013D01*
X158996472Y-86718638D01*
X158996679Y-86718789D01*
X158996659Y-86718815D01*
X159043431Y-86762986D01*
X159060228Y-86830806D01*
X159037693Y-86896942D01*
X158982980Y-86940395D01*
X158936342Y-86949500D01*
X153776884Y-86949500D01*
X153709845Y-86929815D01*
X153664090Y-86877011D01*
X153653945Y-86841685D01*
X153649251Y-86806033D01*
X153648724Y-86802026D01*
X153602523Y-86690486D01*
X153593256Y-86668112D01*
X153593255Y-86668111D01*
X153593255Y-86668110D01*
X153505015Y-86553114D01*
X153390019Y-86464874D01*
X153390018Y-86464873D01*
X153390016Y-86464872D01*
X153256106Y-86409406D01*
X153256104Y-86409405D01*
X153256103Y-86409405D01*
X153184248Y-86399945D01*
X153112395Y-86390485D01*
X153112393Y-86390485D01*
X152968685Y-86409405D01*
X152968681Y-86409406D01*
X152834771Y-86464872D01*
X152719773Y-86553114D01*
X152631531Y-86668112D01*
X152576065Y-86802022D01*
X152576064Y-86802026D01*
X152558834Y-86932902D01*
X152557144Y-86945735D01*
X152566419Y-87016188D01*
X152576064Y-87089443D01*
X152576065Y-87089447D01*
X152631531Y-87223357D01*
X152631532Y-87223359D01*
X152631533Y-87223360D01*
X152719773Y-87338356D01*
X152834769Y-87426596D01*
X152834770Y-87426596D01*
X152834771Y-87426597D01*
X152870741Y-87441496D01*
X152968685Y-87482065D01*
X153057829Y-87493800D01*
X153121724Y-87522066D01*
X153129312Y-87529046D01*
X153255750Y-87655484D01*
X153257655Y-87657389D01*
X153257665Y-87657398D01*
X153278317Y-87678050D01*
X153298053Y-87688106D01*
X153314641Y-87698271D01*
X153332569Y-87711296D01*
X153353638Y-87718141D01*
X153371617Y-87725588D01*
X153391355Y-87735646D01*
X153413237Y-87739111D01*
X153432150Y-87743652D01*
X153453226Y-87750500D01*
X153485140Y-87750500D01*
X161732745Y-87750500D01*
X161799784Y-87770185D01*
X161820426Y-87786819D01*
X162366675Y-88333068D01*
X162400160Y-88394391D01*
X162401933Y-88404563D01*
X162413670Y-88493707D01*
X162413671Y-88493712D01*
X162469137Y-88627622D01*
X162469138Y-88627624D01*
X162469139Y-88627625D01*
X162557379Y-88742621D01*
X162672375Y-88830861D01*
X162806291Y-88886330D01*
X162933280Y-88903048D01*
X162949999Y-88905250D01*
X162950000Y-88905250D01*
X162950001Y-88905250D01*
X162964977Y-88903278D01*
X163093709Y-88886330D01*
X163227625Y-88830861D01*
X163342621Y-88742621D01*
X163430861Y-88627625D01*
X163486330Y-88493709D01*
X163505250Y-88350000D01*
X163503733Y-88338481D01*
X163503021Y-88333068D01*
X163486330Y-88206291D01*
X163430861Y-88072375D01*
X163342621Y-87957379D01*
X163227625Y-87869139D01*
X163227624Y-87869138D01*
X163227622Y-87869137D01*
X163093712Y-87813671D01*
X163093710Y-87813670D01*
X163093709Y-87813670D01*
X163045009Y-87807258D01*
X163004563Y-87801933D01*
X162940666Y-87773666D01*
X162933068Y-87766675D01*
X162209287Y-87042893D01*
X162209256Y-87042864D01*
X162188342Y-87021950D01*
X162188341Y-87021949D01*
X162184482Y-87019983D01*
X162180638Y-87016353D01*
X162180446Y-87016213D01*
X162180464Y-87016188D01*
X162133688Y-86972008D01*
X162116894Y-86904186D01*
X162139433Y-86838052D01*
X162194149Y-86794602D01*
X162240780Y-86785500D01*
X164004191Y-86785500D01*
X164004193Y-86785500D01*
X164025261Y-86778654D01*
X164044177Y-86774112D01*
X164066064Y-86770646D01*
X164085804Y-86760586D01*
X164103771Y-86753144D01*
X164124850Y-86746296D01*
X164142786Y-86733263D01*
X164159348Y-86723114D01*
X164179102Y-86713050D01*
X164194592Y-86697558D01*
X164194601Y-86697552D01*
X164255482Y-86636671D01*
X164262145Y-86630006D01*
X164268810Y-86623342D01*
X164278050Y-86614102D01*
X164288109Y-86594357D01*
X164298271Y-86577774D01*
X164311296Y-86559850D01*
X164318141Y-86538782D01*
X164325586Y-86520805D01*
X164335646Y-86501064D01*
X164339112Y-86479175D01*
X164343652Y-86460261D01*
X164350499Y-86439193D01*
X164350499Y-86409836D01*
X164350500Y-86409811D01*
X164350500Y-82662628D01*
X164370185Y-82595589D01*
X164400866Y-82562857D01*
X164422150Y-82547150D01*
X164502793Y-82437882D01*
X164531290Y-82356443D01*
X164547646Y-82309701D01*
X164547646Y-82309699D01*
X164550500Y-82279269D01*
X164550500Y-81220730D01*
X164547646Y-81190300D01*
X164547646Y-81190298D01*
X164499724Y-81053348D01*
X164502425Y-81052402D01*
X164491486Y-80998592D01*
X164516794Y-80933467D01*
X164573294Y-80892363D01*
X164643047Y-80888330D01*
X164649950Y-80890141D01*
X164685228Y-80900500D01*
X164814773Y-80900500D01*
X164814773Y-80900499D01*
X164939069Y-80864004D01*
X164950885Y-80856410D01*
X165017918Y-80836725D01*
X165084958Y-80856407D01*
X165130715Y-80909209D01*
X165140662Y-80978367D01*
X165117695Y-81034356D01*
X165097209Y-81062114D01*
X165097206Y-81062119D01*
X165052353Y-81190298D01*
X165052353Y-81190300D01*
X165049500Y-81220730D01*
X165049500Y-82279269D01*
X165052353Y-82309699D01*
X165052353Y-82309701D01*
X165097206Y-82437880D01*
X165097207Y-82437882D01*
X165177850Y-82547150D01*
X165287118Y-82627793D01*
X165329845Y-82642744D01*
X165415299Y-82672646D01*
X165445730Y-82675500D01*
X165445734Y-82675500D01*
X166054270Y-82675500D01*
X166084699Y-82672646D01*
X166084701Y-82672646D01*
X166148790Y-82650219D01*
X166212882Y-82627793D01*
X166322150Y-82547150D01*
X166402793Y-82437882D01*
X166431290Y-82356443D01*
X166447646Y-82309701D01*
X166447646Y-82309699D01*
X166450500Y-82279269D01*
X166450500Y-82000000D01*
X166850000Y-82000000D01*
X166850000Y-82268053D01*
X166860613Y-82356443D01*
X166916079Y-82497095D01*
X167007435Y-82617564D01*
X167127904Y-82708920D01*
X167268556Y-82764386D01*
X167356946Y-82775000D01*
X167400000Y-82775000D01*
X167400000Y-82000000D01*
X167900000Y-82000000D01*
X167900000Y-82775000D01*
X167943054Y-82775000D01*
X168031443Y-82764386D01*
X168172095Y-82708920D01*
X168292564Y-82617564D01*
X168383920Y-82497095D01*
X168439386Y-82356443D01*
X168450000Y-82268053D01*
X168450000Y-82000000D01*
X167900000Y-82000000D01*
X167400000Y-82000000D01*
X166850000Y-82000000D01*
X166450500Y-82000000D01*
X166450500Y-81500000D01*
X166850000Y-81500000D01*
X167400000Y-81500000D01*
X167400000Y-80725000D01*
X167900000Y-80725000D01*
X167900000Y-81500000D01*
X168450000Y-81500000D01*
X168450000Y-81231946D01*
X168439386Y-81143556D01*
X168383920Y-81002904D01*
X168292564Y-80882435D01*
X168172095Y-80791079D01*
X168031443Y-80735613D01*
X167943054Y-80725000D01*
X167900000Y-80725000D01*
X167400000Y-80725000D01*
X167356946Y-80725000D01*
X167268556Y-80735613D01*
X167127904Y-80791079D01*
X167007435Y-80882435D01*
X166916079Y-81002904D01*
X166860613Y-81143556D01*
X166850000Y-81231946D01*
X166850000Y-81500000D01*
X166450500Y-81500000D01*
X166450500Y-81220730D01*
X166447646Y-81190300D01*
X166447646Y-81190298D01*
X166402793Y-81062119D01*
X166402792Y-81062117D01*
X166395622Y-81052402D01*
X166322150Y-80952850D01*
X166212882Y-80872207D01*
X166189445Y-80864006D01*
X166158544Y-80853193D01*
X166101768Y-80812471D01*
X166076022Y-80747518D01*
X166075500Y-80736152D01*
X166075500Y-80666920D01*
X166075736Y-80661513D01*
X166076783Y-80649554D01*
X166079264Y-80621193D01*
X166068782Y-80582076D01*
X166067616Y-80576818D01*
X166060588Y-80536955D01*
X166060586Y-80536952D01*
X166060586Y-80536950D01*
X166058760Y-80531933D01*
X166051820Y-80515176D01*
X166049554Y-80510319D01*
X166049554Y-80510316D01*
X166026339Y-80477162D01*
X166023433Y-80472599D01*
X166003196Y-80437548D01*
X166003195Y-80437547D01*
X166003194Y-80437545D01*
X165972177Y-80411518D01*
X165968193Y-80407867D01*
X165887473Y-80327147D01*
X165792119Y-80231793D01*
X165788474Y-80227814D01*
X165762456Y-80196807D01*
X165762455Y-80196806D01*
X165750118Y-80189683D01*
X165727392Y-80176561D01*
X165722831Y-80173655D01*
X165707675Y-80163043D01*
X165689684Y-80150446D01*
X165689681Y-80150445D01*
X165684861Y-80148197D01*
X165668055Y-80141235D01*
X165663043Y-80139411D01*
X165623190Y-80132383D01*
X165617910Y-80131212D01*
X165578808Y-80120735D01*
X165543892Y-80123790D01*
X165538481Y-80124264D01*
X165533078Y-80124500D01*
X165113194Y-80124500D01*
X165046155Y-80104816D01*
X164956851Y-80047423D01*
X164911098Y-79994622D01*
X164901154Y-79925464D01*
X164924120Y-79869480D01*
X165002793Y-79762882D01*
X165021806Y-79708543D01*
X165062527Y-79651769D01*
X165127480Y-79626022D01*
X165138847Y-79625500D01*
X165438431Y-79625500D01*
X165438433Y-79625500D01*
X165459501Y-79618654D01*
X165478417Y-79614112D01*
X165500304Y-79610646D01*
X165520044Y-79600586D01*
X165538011Y-79593144D01*
X165559090Y-79586296D01*
X165577026Y-79573263D01*
X165593588Y-79563114D01*
X165613342Y-79553050D01*
X165628834Y-79537557D01*
X165628841Y-79537552D01*
X166019710Y-79146682D01*
X166155483Y-79010909D01*
X166178050Y-78988342D01*
X166188109Y-78968597D01*
X166198271Y-78952014D01*
X166211296Y-78934090D01*
X166218141Y-78913022D01*
X166225586Y-78895045D01*
X166235646Y-78875304D01*
X166239112Y-78853415D01*
X166243652Y-78834501D01*
X166250499Y-78813433D01*
X166250499Y-78784076D01*
X166250500Y-78784051D01*
X166250500Y-77074444D01*
X166270185Y-77007405D01*
X166276125Y-76998957D01*
X166278346Y-76996063D01*
X166330861Y-76927625D01*
X166386330Y-76793709D01*
X166405250Y-76650000D01*
X166386330Y-76506291D01*
X166330861Y-76372375D01*
X166242621Y-76257379D01*
X166127625Y-76169139D01*
X166127624Y-76169138D01*
X166127622Y-76169137D01*
X165993712Y-76113671D01*
X165993710Y-76113670D01*
X165993709Y-76113670D01*
X165921854Y-76104210D01*
X165850001Y-76094750D01*
X165849999Y-76094750D01*
X165706291Y-76113670D01*
X165706287Y-76113671D01*
X165572377Y-76169137D01*
X165508310Y-76218298D01*
X165457379Y-76257379D01*
X165370600Y-76370472D01*
X165369137Y-76372378D01*
X165331270Y-76463799D01*
X165287429Y-76518203D01*
X165221135Y-76540268D01*
X165161315Y-76525000D01*
X164200000Y-76525000D01*
X164200000Y-77150000D01*
X164643054Y-77150000D01*
X164731443Y-77139386D01*
X164872095Y-77083920D01*
X164992564Y-76992564D01*
X165083921Y-76872094D01*
X165099278Y-76833151D01*
X165142184Y-76778007D01*
X165208091Y-76754813D01*
X165276076Y-76770933D01*
X165324553Y-76821250D01*
X165329194Y-76831188D01*
X165348677Y-76878226D01*
X165369139Y-76927625D01*
X165421653Y-76996062D01*
X165423875Y-76998957D01*
X165449070Y-77064125D01*
X165449500Y-77074444D01*
X165449500Y-78532745D01*
X165429815Y-78599784D01*
X165413181Y-78620426D01*
X165245426Y-78788181D01*
X165184103Y-78821666D01*
X165157745Y-78824500D01*
X165138847Y-78824500D01*
X165071808Y-78804815D01*
X165026053Y-78752011D01*
X165021812Y-78741471D01*
X165002793Y-78687118D01*
X164922150Y-78577850D01*
X164812882Y-78497207D01*
X164812880Y-78497206D01*
X164684700Y-78452353D01*
X164654270Y-78449500D01*
X164654266Y-78449500D01*
X163245734Y-78449500D01*
X163245730Y-78449500D01*
X163215300Y-78452353D01*
X163215298Y-78452353D01*
X163087119Y-78497206D01*
X163087117Y-78497207D01*
X162977850Y-78577850D01*
X162910737Y-78668786D01*
X162897207Y-78687118D01*
X162878193Y-78741456D01*
X162837473Y-78798231D01*
X162772520Y-78823978D01*
X162761153Y-78824500D01*
X162386454Y-78824500D01*
X162319415Y-78804815D01*
X162287650Y-78775425D01*
X162202225Y-78662774D01*
X162088766Y-78576736D01*
X162088764Y-78576735D01*
X161956297Y-78524497D01*
X161956296Y-78524496D01*
X161956295Y-78524496D01*
X161873052Y-78514500D01*
X159476948Y-78514500D01*
X159393704Y-78524496D01*
X159393702Y-78524497D01*
X159344989Y-78543707D01*
X159275402Y-78549988D01*
X159213466Y-78517650D01*
X159178845Y-78456961D01*
X159175500Y-78428352D01*
X159175500Y-78271647D01*
X159195185Y-78204608D01*
X159247989Y-78158853D01*
X159317147Y-78148909D01*
X159344986Y-78156291D01*
X159393703Y-78175503D01*
X159476948Y-78185500D01*
X161873052Y-78185500D01*
X161956297Y-78175503D01*
X162088764Y-78123265D01*
X162202225Y-78037225D01*
X162288265Y-77923764D01*
X162340503Y-77791297D01*
X162350500Y-77708052D01*
X162350500Y-76991948D01*
X162340503Y-76908703D01*
X162288265Y-76776236D01*
X162275574Y-76759500D01*
X162202225Y-76662774D01*
X162088766Y-76576736D01*
X162088764Y-76576735D01*
X161957573Y-76525000D01*
X162750000Y-76525000D01*
X162750000Y-76643053D01*
X162760613Y-76731443D01*
X162816079Y-76872095D01*
X162907435Y-76992564D01*
X163027904Y-77083920D01*
X163168556Y-77139386D01*
X163256946Y-77150000D01*
X163700000Y-77150000D01*
X163700000Y-76525000D01*
X162750000Y-76525000D01*
X161957573Y-76525000D01*
X161956297Y-76524497D01*
X161956296Y-76524496D01*
X161956295Y-76524496D01*
X161873052Y-76514500D01*
X159476948Y-76514500D01*
X159393704Y-76524496D01*
X159393702Y-76524497D01*
X159332518Y-76548625D01*
X159262932Y-76554906D01*
X159200996Y-76522569D01*
X159166375Y-76461880D01*
X159164921Y-76454844D01*
X159160588Y-76430267D01*
X159160586Y-76430264D01*
X159160586Y-76430261D01*
X159158760Y-76425245D01*
X159151820Y-76408488D01*
X159149554Y-76403631D01*
X159149554Y-76403628D01*
X159126337Y-76370471D01*
X159123435Y-76365917D01*
X159103194Y-76330857D01*
X159072182Y-76304834D01*
X159068210Y-76301195D01*
X159008159Y-76241144D01*
X158985062Y-76198845D01*
X158957843Y-76188885D01*
X158943855Y-76176840D01*
X158340131Y-75573117D01*
X158306646Y-75511794D01*
X158305076Y-75503095D01*
X158293385Y-75421774D01*
X158239570Y-75303937D01*
X158154737Y-75206033D01*
X158045757Y-75135996D01*
X158045753Y-75135994D01*
X158045752Y-75135994D01*
X157921462Y-75099500D01*
X157921460Y-75099500D01*
X157828192Y-75099500D01*
X157761153Y-75079815D01*
X157715398Y-75027011D01*
X157705454Y-74993147D01*
X157686697Y-74862690D01*
X157632882Y-74744854D01*
X157632882Y-74744853D01*
X157548049Y-74646949D01*
X157439069Y-74576912D01*
X157439065Y-74576910D01*
X157439064Y-74576910D01*
X157314774Y-74540416D01*
X157314772Y-74540416D01*
X157185228Y-74540416D01*
X157185226Y-74540416D01*
X157060935Y-74576910D01*
X157060932Y-74576911D01*
X157060931Y-74576912D01*
X157010142Y-74609552D01*
X156951950Y-74646949D01*
X156867118Y-74744853D01*
X156867117Y-74744854D01*
X156813302Y-74862690D01*
X156805747Y-74915241D01*
X156776722Y-74978797D01*
X156717943Y-75016571D01*
X156672203Y-75021122D01*
X156667785Y-75020735D01*
X156632869Y-75023790D01*
X156627458Y-75024264D01*
X156622055Y-75024500D01*
X149414340Y-75024500D01*
X149347301Y-75004815D01*
X149301546Y-74952011D01*
X149291602Y-74882853D01*
X149320627Y-74819297D01*
X149379405Y-74781523D01*
X149379406Y-74781523D01*
X149439064Y-74764006D01*
X149439065Y-74764005D01*
X149439069Y-74764004D01*
X149548049Y-74693967D01*
X149632882Y-74596063D01*
X149686697Y-74478226D01*
X149705133Y-74350000D01*
X149686697Y-74221774D01*
X149632882Y-74103937D01*
X149548049Y-74006033D01*
X149439069Y-73935996D01*
X149439065Y-73935994D01*
X149439064Y-73935994D01*
X149431103Y-73933656D01*
X149372326Y-73895879D01*
X149343303Y-73832322D01*
X149353250Y-73763164D01*
X149399006Y-73710362D01*
X149431102Y-73695705D01*
X149539069Y-73664004D01*
X149638661Y-73600000D01*
X158900001Y-73600000D01*
X158900001Y-73729861D01*
X158902754Y-73764862D01*
X158946283Y-73914689D01*
X159025698Y-74048974D01*
X159025705Y-74048983D01*
X159136016Y-74159294D01*
X159136025Y-74159301D01*
X159270311Y-74238717D01*
X159418344Y-74281724D01*
X159477230Y-74319330D01*
X159506437Y-74382803D01*
X159496691Y-74451990D01*
X159451088Y-74504924D01*
X159398543Y-74523915D01*
X159393708Y-74524495D01*
X159393705Y-74524496D01*
X159261233Y-74576736D01*
X159147774Y-74662774D01*
X159061736Y-74776233D01*
X159009496Y-74908704D01*
X158999500Y-74991947D01*
X158999500Y-75708052D01*
X159009496Y-75791295D01*
X159061736Y-75923766D01*
X159130340Y-76014234D01*
X159140687Y-76041459D01*
X159155267Y-76044631D01*
X159170765Y-76054659D01*
X159246446Y-76112050D01*
X159261236Y-76123265D01*
X159393703Y-76175503D01*
X159476948Y-76185500D01*
X161873052Y-76185500D01*
X161956297Y-76175503D01*
X162088764Y-76123265D01*
X162202225Y-76037225D01*
X162211495Y-76025000D01*
X162750000Y-76025000D01*
X163700000Y-76025000D01*
X163700000Y-75400000D01*
X164200000Y-75400000D01*
X164200000Y-76025000D01*
X165150000Y-76025000D01*
X165150000Y-75906946D01*
X165139386Y-75818556D01*
X165083920Y-75677904D01*
X164992564Y-75557435D01*
X164872095Y-75466079D01*
X164731443Y-75410613D01*
X164643054Y-75400000D01*
X164200000Y-75400000D01*
X163700000Y-75400000D01*
X163256946Y-75400000D01*
X163168556Y-75410613D01*
X163027904Y-75466079D01*
X162907435Y-75557435D01*
X162816079Y-75677904D01*
X162760613Y-75818556D01*
X162750000Y-75906946D01*
X162750000Y-76025000D01*
X162211495Y-76025000D01*
X162288265Y-75923764D01*
X162340503Y-75791297D01*
X162350500Y-75708052D01*
X162350500Y-74991948D01*
X162340503Y-74908703D01*
X162288265Y-74776236D01*
X162278991Y-74764006D01*
X162202225Y-74662774D01*
X162088766Y-74576736D01*
X162088764Y-74576735D01*
X161956297Y-74524497D01*
X161951456Y-74523915D01*
X161887244Y-74496374D01*
X161848115Y-74438489D01*
X161846493Y-74368639D01*
X161882892Y-74308999D01*
X161931655Y-74281724D01*
X162079688Y-74238717D01*
X162213974Y-74159301D01*
X162213983Y-74159294D01*
X162324294Y-74048983D01*
X162324301Y-74048974D01*
X162403717Y-73914688D01*
X162403719Y-73914683D01*
X162447244Y-73764870D01*
X162447245Y-73764864D01*
X162450000Y-73729865D01*
X162450000Y-73600000D01*
X158900001Y-73600000D01*
X149638661Y-73600000D01*
X149648049Y-73593967D01*
X149732882Y-73496063D01*
X149786697Y-73378226D01*
X149805133Y-73250000D01*
X149794350Y-73175000D01*
X165225001Y-73175000D01*
X165225001Y-73494785D01*
X165225002Y-73494808D01*
X165227908Y-73519869D01*
X165227909Y-73519873D01*
X165273211Y-73622474D01*
X165273214Y-73622479D01*
X165352520Y-73701785D01*
X165352525Y-73701788D01*
X165455123Y-73747089D01*
X165480206Y-73749999D01*
X166374999Y-73749999D01*
X166375000Y-73749998D01*
X166375000Y-73175000D01*
X166875000Y-73175000D01*
X166875000Y-73749999D01*
X167769786Y-73749999D01*
X167769808Y-73749997D01*
X167794869Y-73747091D01*
X167794873Y-73747090D01*
X167897474Y-73701788D01*
X167897479Y-73701785D01*
X167976785Y-73622479D01*
X167976788Y-73622474D01*
X168022089Y-73519877D01*
X168022089Y-73519875D01*
X168024999Y-73494794D01*
X168025000Y-73494791D01*
X168025000Y-73175000D01*
X166875000Y-73175000D01*
X166375000Y-73175000D01*
X165225001Y-73175000D01*
X149794350Y-73175000D01*
X149786697Y-73121774D01*
X149776753Y-73100000D01*
X158900000Y-73100000D01*
X162449999Y-73100000D01*
X162449999Y-72970139D01*
X162447245Y-72935137D01*
X162403716Y-72785310D01*
X162324301Y-72651025D01*
X162324294Y-72651016D01*
X162213983Y-72540705D01*
X162213974Y-72540698D01*
X162079688Y-72461282D01*
X162079683Y-72461280D01*
X161931654Y-72418274D01*
X161872768Y-72380668D01*
X161843562Y-72317196D01*
X161853308Y-72248009D01*
X161898912Y-72195075D01*
X161951462Y-72176083D01*
X161956297Y-72175503D01*
X162088764Y-72123265D01*
X162202225Y-72037225D01*
X162288265Y-71923764D01*
X162308075Y-71873529D01*
X162315773Y-71854010D01*
X162358679Y-71798866D01*
X162424586Y-71775673D01*
X162431127Y-71775500D01*
X164250500Y-71775500D01*
X164317539Y-71795185D01*
X164363294Y-71847989D01*
X164374500Y-71899500D01*
X164374500Y-71969752D01*
X164386131Y-72028229D01*
X164386132Y-72028230D01*
X164430447Y-72094552D01*
X164496769Y-72138867D01*
X164496770Y-72138868D01*
X164555247Y-72150499D01*
X164555250Y-72150500D01*
X165116921Y-72150500D01*
X165183960Y-72170185D01*
X165229715Y-72222989D01*
X165239659Y-72292147D01*
X165230355Y-72324587D01*
X165227910Y-72330122D01*
X165227910Y-72330124D01*
X165225000Y-72355205D01*
X165225000Y-72675000D01*
X166375000Y-72675000D01*
X166375000Y-72100000D01*
X166875000Y-72100000D01*
X166875000Y-72675000D01*
X168024999Y-72675000D01*
X168024999Y-72355214D01*
X168024997Y-72355191D01*
X168022091Y-72330130D01*
X168022090Y-72330126D01*
X167976788Y-72227525D01*
X167976785Y-72227520D01*
X167897479Y-72148214D01*
X167897474Y-72148211D01*
X167794876Y-72102910D01*
X167769794Y-72100000D01*
X166875000Y-72100000D01*
X166375000Y-72100000D01*
X165949484Y-72100000D01*
X165882445Y-72080315D01*
X165836690Y-72027511D01*
X165828119Y-71975840D01*
X165825500Y-71975840D01*
X165825500Y-70924160D01*
X165828376Y-70924160D01*
X165839050Y-70867604D01*
X165887071Y-70816852D01*
X165949484Y-70799999D01*
X166375000Y-70799999D01*
X166375000Y-70225000D01*
X166875000Y-70225000D01*
X166875000Y-70799999D01*
X167769786Y-70799999D01*
X167769808Y-70799997D01*
X167794869Y-70797091D01*
X167794873Y-70797090D01*
X167897474Y-70751788D01*
X167897479Y-70751785D01*
X167976785Y-70672479D01*
X167976788Y-70672474D01*
X168022089Y-70569877D01*
X168022089Y-70569875D01*
X168024999Y-70544794D01*
X168025000Y-70544791D01*
X168025000Y-70225000D01*
X166875000Y-70225000D01*
X166375000Y-70225000D01*
X165225001Y-70225000D01*
X165225001Y-70544785D01*
X165225002Y-70544808D01*
X165227908Y-70569869D01*
X165227909Y-70569872D01*
X165230356Y-70575413D01*
X165239428Y-70644691D01*
X165209605Y-70707876D01*
X165150356Y-70744908D01*
X165116922Y-70749500D01*
X164555247Y-70749500D01*
X164496770Y-70761131D01*
X164496769Y-70761132D01*
X164430447Y-70805447D01*
X164386132Y-70871769D01*
X164386131Y-70871770D01*
X164374500Y-70930247D01*
X164374500Y-71000500D01*
X164354815Y-71067539D01*
X164302011Y-71113294D01*
X164250500Y-71124500D01*
X162474500Y-71124500D01*
X162407461Y-71104815D01*
X162361706Y-71052011D01*
X162350500Y-71000500D01*
X162350500Y-70991947D01*
X162343677Y-70935135D01*
X162340503Y-70908703D01*
X162288265Y-70776236D01*
X162276812Y-70761133D01*
X162202225Y-70662774D01*
X162088766Y-70576736D01*
X162088764Y-70576735D01*
X161956297Y-70524497D01*
X161956296Y-70524496D01*
X161956295Y-70524496D01*
X161873052Y-70514500D01*
X159476948Y-70514500D01*
X159393704Y-70524496D01*
X159261233Y-70576736D01*
X159147774Y-70662774D01*
X159061736Y-70776233D01*
X159009496Y-70908704D01*
X158999500Y-70991947D01*
X158999500Y-71708052D01*
X159009496Y-71791295D01*
X159009497Y-71791297D01*
X159061733Y-71923760D01*
X159061736Y-71923766D01*
X159147774Y-72037225D01*
X159261233Y-72123263D01*
X159261236Y-72123265D01*
X159393703Y-72175503D01*
X159398537Y-72176083D01*
X159462748Y-72203619D01*
X159501881Y-72261502D01*
X159503509Y-72331352D01*
X159467113Y-72390994D01*
X159418345Y-72418274D01*
X159270316Y-72461280D01*
X159270311Y-72461282D01*
X159136025Y-72540698D01*
X159136016Y-72540705D01*
X159025705Y-72651016D01*
X159025698Y-72651025D01*
X158946282Y-72785311D01*
X158946280Y-72785316D01*
X158902755Y-72935129D01*
X158902754Y-72935135D01*
X158900000Y-72970135D01*
X158900000Y-73100000D01*
X149776753Y-73100000D01*
X149732882Y-73003937D01*
X149648049Y-72906033D01*
X149539069Y-72835996D01*
X149539065Y-72835994D01*
X149539064Y-72835994D01*
X149414774Y-72799500D01*
X149414772Y-72799500D01*
X149285228Y-72799500D01*
X149285226Y-72799500D01*
X149160935Y-72835994D01*
X149160932Y-72835995D01*
X149160931Y-72835996D01*
X149053845Y-72904816D01*
X148986806Y-72924500D01*
X148824657Y-72924500D01*
X148757618Y-72904815D01*
X148711863Y-72852011D01*
X148701919Y-72782853D01*
X148730944Y-72719297D01*
X148789722Y-72681523D01*
X148789724Y-72681522D01*
X148798484Y-72678950D01*
X148907464Y-72608913D01*
X148992297Y-72511009D01*
X149046112Y-72393172D01*
X149055505Y-72327832D01*
X149084528Y-72264277D01*
X149090548Y-72257811D01*
X151623360Y-69725000D01*
X165225000Y-69725000D01*
X166375000Y-69725000D01*
X166375000Y-69150000D01*
X166875000Y-69150000D01*
X166875000Y-69725000D01*
X168024999Y-69725000D01*
X168024999Y-69405214D01*
X168024997Y-69405191D01*
X168022091Y-69380130D01*
X168022090Y-69380126D01*
X167976788Y-69277525D01*
X167976785Y-69277520D01*
X167897479Y-69198214D01*
X167897474Y-69198211D01*
X167794876Y-69152910D01*
X167769794Y-69150000D01*
X166875000Y-69150000D01*
X166375000Y-69150000D01*
X165480214Y-69150000D01*
X165480191Y-69150002D01*
X165455130Y-69152908D01*
X165455126Y-69152909D01*
X165352525Y-69198211D01*
X165352520Y-69198214D01*
X165273214Y-69277520D01*
X165273211Y-69277525D01*
X165227910Y-69380122D01*
X165227910Y-69380124D01*
X165225000Y-69405205D01*
X165225000Y-69725000D01*
X151623360Y-69725000D01*
X152165718Y-69182642D01*
X152169680Y-69179011D01*
X152200702Y-69152982D01*
X152220952Y-69117905D01*
X152223841Y-69113372D01*
X152247061Y-69080211D01*
X152247063Y-69080203D01*
X152249324Y-69075355D01*
X152256262Y-69058606D01*
X152258091Y-69053579D01*
X152258096Y-69053572D01*
X152265130Y-69013674D01*
X152266287Y-69008456D01*
X152276771Y-68969334D01*
X152273243Y-68929016D01*
X152273008Y-68923613D01*
X152273008Y-67774000D01*
X152292693Y-67706961D01*
X152345497Y-67661206D01*
X152397008Y-67650000D01*
X154950000Y-67650000D01*
X154960184Y-67639815D01*
X154969685Y-67607461D01*
X155022489Y-67561706D01*
X155074000Y-67550500D01*
X167002405Y-67550500D01*
X167048258Y-67550500D01*
X167051735Y-67550598D01*
X167192940Y-67558527D01*
X167348780Y-67567279D01*
X167355670Y-67568055D01*
X167604372Y-67610311D01*
X167647257Y-67617598D01*
X167654041Y-67619146D01*
X167938242Y-67701023D01*
X167944809Y-67703322D01*
X168081428Y-67759911D01*
X168218060Y-67816505D01*
X168224309Y-67819515D01*
X168393444Y-67912992D01*
X168483170Y-67962582D01*
X168489062Y-67966284D01*
X168730268Y-68137429D01*
X168735708Y-68141767D01*
X168956236Y-68338843D01*
X168961156Y-68343763D01*
X169158232Y-68564291D01*
X169162570Y-68569731D01*
X169333715Y-68810937D01*
X169337417Y-68816829D01*
X169480480Y-69075682D01*
X169483499Y-69081951D01*
X169596677Y-69355190D01*
X169598976Y-69361757D01*
X169680853Y-69645958D01*
X169682401Y-69652742D01*
X169731942Y-69944315D01*
X169732721Y-69951229D01*
X169749402Y-70248264D01*
X169749500Y-70251741D01*
X169749500Y-93198747D01*
X169729815Y-93265786D01*
X169677011Y-93311541D01*
X169607853Y-93321485D01*
X169544297Y-93292460D01*
X169506523Y-93233682D01*
X169503384Y-93220279D01*
X169474571Y-93056872D01*
X169474569Y-93056865D01*
X169374325Y-92722027D01*
X169235889Y-92401096D01*
X169061130Y-92098404D01*
X169061129Y-92098402D01*
X168852415Y-91818050D01*
X168852410Y-91818044D01*
X168718055Y-91675637D01*
X168612558Y-91563817D01*
X168435412Y-91415174D01*
X168344813Y-91339152D01*
X168344805Y-91339146D01*
X168052796Y-91147088D01*
X167740458Y-90990226D01*
X167740452Y-90990223D01*
X167412012Y-90870681D01*
X167412009Y-90870680D01*
X167071915Y-90790077D01*
X167028519Y-90785004D01*
X166724759Y-90749500D01*
X166375241Y-90749500D01*
X166071480Y-90785004D01*
X166028085Y-90790077D01*
X166028083Y-90790077D01*
X165687990Y-90870680D01*
X165687987Y-90870681D01*
X165359547Y-90990223D01*
X165359541Y-90990226D01*
X165047203Y-91147088D01*
X164755194Y-91339146D01*
X164755186Y-91339152D01*
X164487442Y-91563817D01*
X164487440Y-91563819D01*
X164247589Y-91818044D01*
X164247584Y-91818050D01*
X164038870Y-92098402D01*
X163864113Y-92401091D01*
X163864107Y-92401104D01*
X163725674Y-92722027D01*
X163625430Y-93056865D01*
X163625428Y-93056872D01*
X163564739Y-93401061D01*
X163564738Y-93401072D01*
X163544415Y-93749996D01*
X163544415Y-93750003D01*
X163564738Y-94098927D01*
X163564739Y-94098938D01*
X163625428Y-94443127D01*
X163625430Y-94443134D01*
X163725674Y-94777972D01*
X163864107Y-95098895D01*
X163864113Y-95098908D01*
X164038870Y-95401597D01*
X164247584Y-95681949D01*
X164247589Y-95681955D01*
X164371463Y-95813253D01*
X164487442Y-95936183D01*
X164663903Y-96084251D01*
X164755186Y-96160847D01*
X164755194Y-96160853D01*
X165047203Y-96352911D01*
X165047207Y-96352913D01*
X165359549Y-96509777D01*
X165687989Y-96629319D01*
X165907702Y-96681391D01*
X166006647Y-96704842D01*
X166067340Y-96739457D01*
X166099684Y-96801389D01*
X166093411Y-96870977D01*
X166050511Y-96926125D01*
X165984606Y-96949327D01*
X165978051Y-96949500D01*
X139121949Y-96949500D01*
X139054910Y-96929815D01*
X139009155Y-96877011D01*
X138999211Y-96807853D01*
X139028236Y-96744297D01*
X139087014Y-96706523D01*
X139093353Y-96704842D01*
X139189035Y-96682165D01*
X139412011Y-96629319D01*
X139740451Y-96509777D01*
X140052793Y-96352913D01*
X140344811Y-96160849D01*
X140612558Y-95936183D01*
X140852412Y-95681953D01*
X141061130Y-95401596D01*
X141235889Y-95098904D01*
X141374326Y-94777971D01*
X141474569Y-94443136D01*
X141474572Y-94443124D01*
X141483101Y-94394752D01*
X144424500Y-94394752D01*
X144436131Y-94453229D01*
X144436132Y-94453230D01*
X144480447Y-94519552D01*
X144546769Y-94563867D01*
X144546770Y-94563868D01*
X144605247Y-94575499D01*
X144605250Y-94575500D01*
X144605252Y-94575500D01*
X145494750Y-94575500D01*
X145494751Y-94575499D01*
X145511896Y-94572089D01*
X145553229Y-94563868D01*
X145553229Y-94563867D01*
X145553231Y-94563867D01*
X145619552Y-94519552D01*
X145663867Y-94453231D01*
X145663867Y-94453229D01*
X145663868Y-94453229D01*
X145675499Y-94394752D01*
X145675500Y-94394750D01*
X145675500Y-94100000D01*
X160525001Y-94100000D01*
X160525001Y-94319785D01*
X160525002Y-94319808D01*
X160527908Y-94344869D01*
X160527909Y-94344873D01*
X160573211Y-94447474D01*
X160573214Y-94447479D01*
X160652520Y-94526785D01*
X160652525Y-94526788D01*
X160755123Y-94572089D01*
X160780206Y-94574999D01*
X160999999Y-94574999D01*
X161000000Y-94574998D01*
X161000000Y-94100000D01*
X160525001Y-94100000D01*
X145675500Y-94100000D01*
X145675500Y-93850000D01*
X160995102Y-93850000D01*
X161014505Y-93947545D01*
X161069760Y-94030240D01*
X161152455Y-94085495D01*
X161225376Y-94100000D01*
X161274624Y-94100000D01*
X161500000Y-94100000D01*
X161500000Y-94574999D01*
X161719786Y-94574999D01*
X161719808Y-94574997D01*
X161744869Y-94572091D01*
X161744873Y-94572090D01*
X161847474Y-94526788D01*
X161847479Y-94526785D01*
X161926785Y-94447479D01*
X161926788Y-94447474D01*
X161972089Y-94344877D01*
X161972089Y-94344875D01*
X161974999Y-94319794D01*
X161975000Y-94319791D01*
X161975000Y-94100000D01*
X161500000Y-94100000D01*
X161274624Y-94100000D01*
X161347545Y-94085495D01*
X161430240Y-94030240D01*
X161485495Y-93947545D01*
X161504898Y-93850000D01*
X161485495Y-93752455D01*
X161430240Y-93669760D01*
X161347545Y-93614505D01*
X161274624Y-93600000D01*
X161225376Y-93600000D01*
X161152455Y-93614505D01*
X161069760Y-93669760D01*
X161014505Y-93752455D01*
X160995102Y-93850000D01*
X145675500Y-93850000D01*
X145675500Y-93600000D01*
X160525000Y-93600000D01*
X161000000Y-93600000D01*
X161000000Y-93125000D01*
X161500000Y-93125000D01*
X161500000Y-93600000D01*
X161974999Y-93600000D01*
X161974999Y-93380214D01*
X161974997Y-93380191D01*
X161972091Y-93355130D01*
X161972090Y-93355126D01*
X161926788Y-93252525D01*
X161926785Y-93252520D01*
X161847479Y-93173214D01*
X161847474Y-93173211D01*
X161744876Y-93127910D01*
X161719794Y-93125000D01*
X161500000Y-93125000D01*
X161000000Y-93125000D01*
X160780214Y-93125000D01*
X160780191Y-93125002D01*
X160755130Y-93127908D01*
X160755126Y-93127909D01*
X160652525Y-93173211D01*
X160652520Y-93173214D01*
X160573214Y-93252520D01*
X160573211Y-93252525D01*
X160527910Y-93355122D01*
X160527910Y-93355124D01*
X160525000Y-93380205D01*
X160525000Y-93600000D01*
X145675500Y-93600000D01*
X145675500Y-93505249D01*
X145675499Y-93505247D01*
X145663868Y-93446770D01*
X145663867Y-93446769D01*
X145619552Y-93380447D01*
X145553230Y-93336132D01*
X145553229Y-93336131D01*
X145494752Y-93324500D01*
X145494748Y-93324500D01*
X144605252Y-93324500D01*
X144605247Y-93324500D01*
X144546770Y-93336131D01*
X144546769Y-93336132D01*
X144480447Y-93380447D01*
X144436132Y-93446769D01*
X144436131Y-93446770D01*
X144424500Y-93505247D01*
X144424500Y-94394752D01*
X141483101Y-94394752D01*
X141535260Y-94098938D01*
X141535259Y-94098938D01*
X141535262Y-94098927D01*
X141555585Y-93750000D01*
X141535262Y-93401073D01*
X141531584Y-93380214D01*
X141474571Y-93056872D01*
X141474569Y-93056865D01*
X141374325Y-92722027D01*
X141235889Y-92401096D01*
X141061130Y-92098404D01*
X141061129Y-92098402D01*
X140852415Y-91818050D01*
X140852410Y-91818044D01*
X140718055Y-91675637D01*
X140612558Y-91563817D01*
X140435412Y-91415174D01*
X140344813Y-91339152D01*
X140344805Y-91339146D01*
X140052796Y-91147088D01*
X139740458Y-90990226D01*
X139740452Y-90990223D01*
X139412012Y-90870681D01*
X139412009Y-90870680D01*
X139071915Y-90790077D01*
X139028519Y-90785004D01*
X138729037Y-90750000D01*
X149394867Y-90750000D01*
X149413302Y-90878225D01*
X149464451Y-90990223D01*
X149467118Y-90996063D01*
X149494213Y-91027333D01*
X149523238Y-91090888D01*
X149524500Y-91108535D01*
X149524500Y-91533078D01*
X149524264Y-91538485D01*
X149520735Y-91578808D01*
X149531212Y-91617910D01*
X149532383Y-91623190D01*
X149539411Y-91663043D01*
X149541235Y-91668055D01*
X149548197Y-91684861D01*
X149550445Y-91689681D01*
X149550446Y-91689684D01*
X149561894Y-91706033D01*
X149573655Y-91722831D01*
X149576561Y-91727392D01*
X149596806Y-91762455D01*
X149627815Y-91788475D01*
X149631805Y-91792131D01*
X149866555Y-92026881D01*
X149900040Y-92088204D01*
X149901612Y-92096915D01*
X149913302Y-92178225D01*
X149967117Y-92296061D01*
X149967118Y-92296063D01*
X150051951Y-92393967D01*
X150160931Y-92464004D01*
X150285225Y-92500499D01*
X150285227Y-92500500D01*
X150285228Y-92500500D01*
X150414773Y-92500500D01*
X150414773Y-92500499D01*
X150539069Y-92464004D01*
X150648049Y-92393967D01*
X150732882Y-92296063D01*
X150786697Y-92178226D01*
X150805133Y-92050000D01*
X150786697Y-91921774D01*
X150732882Y-91803937D01*
X150648049Y-91706033D01*
X150539069Y-91635996D01*
X150539065Y-91635994D01*
X150539064Y-91635994D01*
X150414774Y-91599500D01*
X150414772Y-91599500D01*
X150411188Y-91599500D01*
X150407748Y-91598490D01*
X150405995Y-91598238D01*
X150406031Y-91597985D01*
X150344149Y-91579815D01*
X150323507Y-91563181D01*
X150211819Y-91451493D01*
X150178334Y-91390170D01*
X150175500Y-91363812D01*
X150175500Y-91108535D01*
X150195185Y-91041496D01*
X150205783Y-91027336D01*
X150232882Y-90996063D01*
X150286697Y-90878226D01*
X150305133Y-90750000D01*
X150286697Y-90621774D01*
X150232882Y-90503937D01*
X150223880Y-90493548D01*
X150205785Y-90472664D01*
X150176762Y-90409108D01*
X150175500Y-90391464D01*
X150175500Y-89536187D01*
X150195185Y-89469148D01*
X150211815Y-89448510D01*
X151068215Y-88592109D01*
X151072166Y-88588489D01*
X151103194Y-88562455D01*
X151123438Y-88527390D01*
X151126335Y-88522841D01*
X151149554Y-88489684D01*
X151149554Y-88489681D01*
X151151819Y-88484824D01*
X151158747Y-88468099D01*
X151160584Y-88463050D01*
X151160588Y-88463045D01*
X151167619Y-88423162D01*
X151168777Y-88417940D01*
X151179264Y-88378807D01*
X151175735Y-88338478D01*
X151175500Y-88333075D01*
X151175500Y-87508535D01*
X151195185Y-87441496D01*
X151205783Y-87427336D01*
X151232882Y-87396063D01*
X151286697Y-87278226D01*
X151305133Y-87150000D01*
X151286697Y-87021774D01*
X151232882Y-86903937D01*
X151148049Y-86806033D01*
X151039069Y-86735996D01*
X151039065Y-86735994D01*
X151039064Y-86735994D01*
X150914774Y-86699500D01*
X150914772Y-86699500D01*
X150785228Y-86699500D01*
X150785226Y-86699500D01*
X150660935Y-86735994D01*
X150660932Y-86735995D01*
X150660931Y-86735996D01*
X150644904Y-86746296D01*
X150551950Y-86806033D01*
X150467118Y-86903937D01*
X150467117Y-86903938D01*
X150413302Y-87021774D01*
X150394867Y-87150000D01*
X150413302Y-87278225D01*
X150467117Y-87396061D01*
X150467118Y-87396063D01*
X150494213Y-87427333D01*
X150523238Y-87490888D01*
X150524500Y-87508535D01*
X150524500Y-88163811D01*
X150504815Y-88230850D01*
X150488181Y-88251492D01*
X149631803Y-89107870D01*
X149627814Y-89111525D01*
X149596805Y-89137545D01*
X149576562Y-89172606D01*
X149573656Y-89177166D01*
X149550446Y-89210313D01*
X149548206Y-89215117D01*
X149541229Y-89231961D01*
X149539410Y-89236959D01*
X149532383Y-89276811D01*
X149531212Y-89282091D01*
X149520735Y-89321191D01*
X149524264Y-89361513D01*
X149524500Y-89366920D01*
X149524500Y-90391464D01*
X149504815Y-90458503D01*
X149494215Y-90472664D01*
X149467119Y-90503935D01*
X149467116Y-90503939D01*
X149413302Y-90621774D01*
X149394867Y-90750000D01*
X138729037Y-90750000D01*
X138724759Y-90749500D01*
X138375241Y-90749500D01*
X138071480Y-90785004D01*
X138028085Y-90790077D01*
X138028083Y-90790077D01*
X137687990Y-90870680D01*
X137687987Y-90870681D01*
X137359547Y-90990223D01*
X137359541Y-90990226D01*
X137047203Y-91147088D01*
X136755194Y-91339146D01*
X136755186Y-91339152D01*
X136487442Y-91563817D01*
X136487440Y-91563819D01*
X136247589Y-91818044D01*
X136247584Y-91818050D01*
X136038870Y-92098402D01*
X135864113Y-92401091D01*
X135864107Y-92401104D01*
X135725674Y-92722027D01*
X135625430Y-93056865D01*
X135625428Y-93056872D01*
X135596616Y-93220279D01*
X135565589Y-93282882D01*
X135505642Y-93318773D01*
X135435808Y-93316556D01*
X135378258Y-93276936D01*
X135351264Y-93212491D01*
X135350500Y-93198747D01*
X135350500Y-85600000D01*
X143850001Y-85600000D01*
X143850001Y-85729861D01*
X143852754Y-85764862D01*
X143896283Y-85914689D01*
X143975698Y-86048974D01*
X143975705Y-86048983D01*
X144086016Y-86159294D01*
X144086025Y-86159301D01*
X144220311Y-86238717D01*
X144220316Y-86238719D01*
X144370129Y-86282244D01*
X144370135Y-86282245D01*
X144405137Y-86285000D01*
X145374999Y-86284999D01*
X145375000Y-86284998D01*
X145375000Y-85600000D01*
X145875000Y-85600000D01*
X145875000Y-86284999D01*
X146844861Y-86284999D01*
X146879862Y-86282245D01*
X147029689Y-86238716D01*
X147163974Y-86159301D01*
X147163983Y-86159294D01*
X147274294Y-86048983D01*
X147274301Y-86048974D01*
X147353717Y-85914688D01*
X147353719Y-85914683D01*
X147397244Y-85764870D01*
X147397245Y-85764864D01*
X147400000Y-85729865D01*
X147400000Y-85600000D01*
X145875000Y-85600000D01*
X145375000Y-85600000D01*
X143850001Y-85600000D01*
X135350500Y-85600000D01*
X135350500Y-72150000D01*
X136710001Y-72150000D01*
X136710001Y-73144785D01*
X136710002Y-73144808D01*
X136712908Y-73169869D01*
X136712909Y-73169873D01*
X136758211Y-73272474D01*
X136758214Y-73272479D01*
X136837520Y-73351785D01*
X136837525Y-73351788D01*
X136940123Y-73397089D01*
X136965206Y-73399999D01*
X137129999Y-73399999D01*
X137130000Y-73399998D01*
X137130000Y-72150000D01*
X136710001Y-72150000D01*
X135350500Y-72150000D01*
X135350500Y-71650000D01*
X136710000Y-71650000D01*
X137130000Y-71650000D01*
X137130000Y-70400000D01*
X136965214Y-70400000D01*
X136965191Y-70400002D01*
X136940130Y-70402908D01*
X136940126Y-70402909D01*
X136837525Y-70448211D01*
X136837520Y-70448214D01*
X136758214Y-70527520D01*
X136758211Y-70527525D01*
X136712910Y-70630122D01*
X136712910Y-70630124D01*
X136710000Y-70655205D01*
X136710000Y-71650000D01*
X135350500Y-71650000D01*
X135350500Y-70251741D01*
X135350598Y-70248264D01*
X135360214Y-70077028D01*
X135367279Y-69951217D01*
X135368055Y-69944331D01*
X135417598Y-69652741D01*
X135419146Y-69645958D01*
X135501024Y-69361751D01*
X135503322Y-69355190D01*
X135568343Y-69198214D01*
X135616508Y-69081932D01*
X135619511Y-69075697D01*
X135762584Y-68816824D01*
X135766280Y-68810943D01*
X135937433Y-68569725D01*
X135941761Y-68564298D01*
X136138845Y-68343760D01*
X136143763Y-68338843D01*
X136364298Y-68141761D01*
X136369725Y-68137433D01*
X136610943Y-67966280D01*
X136616824Y-67962584D01*
X136875697Y-67819511D01*
X136881932Y-67816508D01*
X137108916Y-67722489D01*
X137155190Y-67703322D01*
X137161751Y-67701024D01*
X137445962Y-67619145D01*
X137452742Y-67617598D01*
X137744331Y-67568055D01*
X137751217Y-67567279D01*
X137913442Y-67558168D01*
X138048265Y-67550598D01*
X138051742Y-67550500D01*
X138097595Y-67550500D01*
X150026000Y-67550500D01*
X150093039Y-67570185D01*
G37*
%TD.AperFunction*%
%TA.AperFunction,Conductor*%
G36*
X155767356Y-76195185D02*
G01*
X155813111Y-76247989D01*
X155819294Y-76264564D01*
X155820490Y-76268639D01*
X155820491Y-76268642D01*
X155874306Y-76386479D01*
X155908244Y-76425646D01*
X155938304Y-76460338D01*
X155967328Y-76523894D01*
X155957384Y-76593053D01*
X155938304Y-76622741D01*
X155873353Y-76697699D01*
X155873350Y-76697705D01*
X155819535Y-76815541D01*
X155801100Y-76943767D01*
X155819535Y-77071992D01*
X155873350Y-77189828D01*
X155873353Y-77189834D01*
X155935958Y-77262084D01*
X155964983Y-77325640D01*
X155955039Y-77394798D01*
X155935957Y-77424489D01*
X155923792Y-77438528D01*
X155865014Y-77476302D01*
X155795144Y-77476302D01*
X155763043Y-77461642D01*
X155732836Y-77442229D01*
X155732832Y-77442227D01*
X155732831Y-77442227D01*
X155608541Y-77405733D01*
X155608539Y-77405733D01*
X155478995Y-77405733D01*
X155478993Y-77405733D01*
X155354702Y-77442227D01*
X155354699Y-77442228D01*
X155354698Y-77442229D01*
X155257310Y-77504816D01*
X155190272Y-77524500D01*
X148667000Y-77524500D01*
X148599961Y-77504815D01*
X148554206Y-77452011D01*
X148544262Y-77382853D01*
X148573287Y-77319297D01*
X148579319Y-77312819D01*
X148780319Y-77111819D01*
X148841642Y-77078334D01*
X148868000Y-77075500D01*
X148986806Y-77075500D01*
X149053844Y-77095183D01*
X149160931Y-77164004D01*
X149285225Y-77200499D01*
X149285227Y-77200500D01*
X149285228Y-77200500D01*
X149414773Y-77200500D01*
X149414773Y-77200499D01*
X149539069Y-77164004D01*
X149648049Y-77093967D01*
X149732882Y-76996063D01*
X149786697Y-76878226D01*
X149805133Y-76750000D01*
X149786697Y-76621774D01*
X149732882Y-76503937D01*
X149648049Y-76406033D01*
X149644598Y-76403815D01*
X149641910Y-76400713D01*
X149641348Y-76400226D01*
X149641418Y-76400145D01*
X149598844Y-76351012D01*
X149588900Y-76281854D01*
X149617925Y-76218298D01*
X149676703Y-76180523D01*
X149711638Y-76175500D01*
X155700317Y-76175500D01*
X155767356Y-76195185D01*
G37*
%TD.AperFunction*%
%TD*%
M02*
