%TF.GenerationSoftware,KiCad,Pcbnew,7.0.8*%
%TF.CreationDate,2023-11-19T15:13:28+01:00*%
%TF.ProjectId,AetherPhylax,41657468-6572-4506-9879-6c61782e6b69,rev?*%
%TF.SameCoordinates,Original*%
%TF.FileFunction,Legend,Bot*%
%TF.FilePolarity,Positive*%
%FSLAX46Y46*%
G04 Gerber Fmt 4.6, Leading zero omitted, Abs format (unit mm)*
G04 Created by KiCad (PCBNEW 7.0.8) date 2023-11-19 15:13:28*
%MOMM*%
%LPD*%
G01*
G04 APERTURE LIST*
%ADD10C,0.150000*%
%ADD11C,0.120000*%
G04 APERTURE END LIST*
D10*
X155984649Y-72156533D02*
X155984649Y-72656533D01*
X155984649Y-72656533D02*
X156017982Y-72756533D01*
X156017982Y-72756533D02*
X156084649Y-72823200D01*
X156084649Y-72823200D02*
X156184649Y-72856533D01*
X156184649Y-72856533D02*
X156251316Y-72856533D01*
X155317983Y-72856533D02*
X155651316Y-72856533D01*
X155651316Y-72856533D02*
X155651316Y-72156533D01*
X154684649Y-72789866D02*
X154717982Y-72823200D01*
X154717982Y-72823200D02*
X154817982Y-72856533D01*
X154817982Y-72856533D02*
X154884649Y-72856533D01*
X154884649Y-72856533D02*
X154984649Y-72823200D01*
X154984649Y-72823200D02*
X155051316Y-72756533D01*
X155051316Y-72756533D02*
X155084649Y-72689866D01*
X155084649Y-72689866D02*
X155117982Y-72556533D01*
X155117982Y-72556533D02*
X155117982Y-72456533D01*
X155117982Y-72456533D02*
X155084649Y-72323200D01*
X155084649Y-72323200D02*
X155051316Y-72256533D01*
X155051316Y-72256533D02*
X154984649Y-72189866D01*
X154984649Y-72189866D02*
X154884649Y-72156533D01*
X154884649Y-72156533D02*
X154817982Y-72156533D01*
X154817982Y-72156533D02*
X154717982Y-72189866D01*
X154717982Y-72189866D02*
X154684649Y-72223200D01*
X154184649Y-72156533D02*
X154184649Y-72656533D01*
X154184649Y-72656533D02*
X154217982Y-72756533D01*
X154217982Y-72756533D02*
X154284649Y-72823200D01*
X154284649Y-72823200D02*
X154384649Y-72856533D01*
X154384649Y-72856533D02*
X154451316Y-72856533D01*
X153517983Y-72856533D02*
X153851316Y-72856533D01*
X153851316Y-72856533D02*
X153851316Y-72156533D01*
X152884649Y-72789866D02*
X152917982Y-72823200D01*
X152917982Y-72823200D02*
X153017982Y-72856533D01*
X153017982Y-72856533D02*
X153084649Y-72856533D01*
X153084649Y-72856533D02*
X153184649Y-72823200D01*
X153184649Y-72823200D02*
X153251316Y-72756533D01*
X153251316Y-72756533D02*
X153284649Y-72689866D01*
X153284649Y-72689866D02*
X153317982Y-72556533D01*
X153317982Y-72556533D02*
X153317982Y-72456533D01*
X153317982Y-72456533D02*
X153284649Y-72323200D01*
X153284649Y-72323200D02*
X153251316Y-72256533D01*
X153251316Y-72256533D02*
X153184649Y-72189866D01*
X153184649Y-72189866D02*
X153084649Y-72156533D01*
X153084649Y-72156533D02*
X153017982Y-72156533D01*
X153017982Y-72156533D02*
X152917982Y-72189866D01*
X152917982Y-72189866D02*
X152884649Y-72223200D01*
X152384649Y-72156533D02*
X152384649Y-72656533D01*
X152384649Y-72656533D02*
X152417982Y-72756533D01*
X152417982Y-72756533D02*
X152484649Y-72823200D01*
X152484649Y-72823200D02*
X152584649Y-72856533D01*
X152584649Y-72856533D02*
X152651316Y-72856533D01*
X151717983Y-72856533D02*
X152051316Y-72856533D01*
X152051316Y-72856533D02*
X152051316Y-72156533D01*
X151084649Y-72789866D02*
X151117982Y-72823200D01*
X151117982Y-72823200D02*
X151217982Y-72856533D01*
X151217982Y-72856533D02*
X151284649Y-72856533D01*
X151284649Y-72856533D02*
X151384649Y-72823200D01*
X151384649Y-72823200D02*
X151451316Y-72756533D01*
X151451316Y-72756533D02*
X151484649Y-72689866D01*
X151484649Y-72689866D02*
X151517982Y-72556533D01*
X151517982Y-72556533D02*
X151517982Y-72456533D01*
X151517982Y-72456533D02*
X151484649Y-72323200D01*
X151484649Y-72323200D02*
X151451316Y-72256533D01*
X151451316Y-72256533D02*
X151384649Y-72189866D01*
X151384649Y-72189866D02*
X151284649Y-72156533D01*
X151284649Y-72156533D02*
X151217982Y-72156533D01*
X151217982Y-72156533D02*
X151117982Y-72189866D01*
X151117982Y-72189866D02*
X151084649Y-72223200D01*
X150584649Y-72156533D02*
X150584649Y-72656533D01*
X150584649Y-72656533D02*
X150617982Y-72756533D01*
X150617982Y-72756533D02*
X150684649Y-72823200D01*
X150684649Y-72823200D02*
X150784649Y-72856533D01*
X150784649Y-72856533D02*
X150851316Y-72856533D01*
X149917983Y-72856533D02*
X150251316Y-72856533D01*
X150251316Y-72856533D02*
X150251316Y-72156533D01*
X149284649Y-72789866D02*
X149317982Y-72823200D01*
X149317982Y-72823200D02*
X149417982Y-72856533D01*
X149417982Y-72856533D02*
X149484649Y-72856533D01*
X149484649Y-72856533D02*
X149584649Y-72823200D01*
X149584649Y-72823200D02*
X149651316Y-72756533D01*
X149651316Y-72756533D02*
X149684649Y-72689866D01*
X149684649Y-72689866D02*
X149717982Y-72556533D01*
X149717982Y-72556533D02*
X149717982Y-72456533D01*
X149717982Y-72456533D02*
X149684649Y-72323200D01*
X149684649Y-72323200D02*
X149651316Y-72256533D01*
X149651316Y-72256533D02*
X149584649Y-72189866D01*
X149584649Y-72189866D02*
X149484649Y-72156533D01*
X149484649Y-72156533D02*
X149417982Y-72156533D01*
X149417982Y-72156533D02*
X149317982Y-72189866D01*
X149317982Y-72189866D02*
X149284649Y-72223200D01*
D11*
%TO.C,ANT1*%
X165265000Y-70050000D02*
X165265000Y-70690000D01*
X165265000Y-72210000D02*
X164635000Y-72210000D01*
X165265000Y-72850000D02*
X165265000Y-72210000D01*
X167985000Y-72800000D02*
X167985000Y-70100000D01*
%TO.C,C4*%
X163040000Y-78461252D02*
X163040000Y-77038748D01*
X164860000Y-78461252D02*
X164860000Y-77038748D01*
%TO.C,U4*%
X145050000Y-70250000D02*
X161250000Y-70250000D01*
X145050000Y-70650000D02*
X145050000Y-70250000D01*
X145050000Y-86100000D02*
X144150000Y-86100000D01*
X145050000Y-86450000D02*
X145050000Y-86100000D01*
X145050000Y-86450000D02*
X161250000Y-86450000D01*
X161250000Y-70250000D02*
X161250000Y-70650000D01*
X161250000Y-86450000D02*
X161250000Y-86050000D01*
D10*
%TO.C,JP2*%
X166961252Y-82485000D02*
X166438748Y-82485000D01*
X166961252Y-81020000D02*
X166438748Y-81020000D01*
X165061252Y-82490000D02*
X164538748Y-82490000D01*
X165061252Y-81020000D02*
X164538748Y-81020000D01*
D11*
%TO.C,DEBUG1*%
X140550000Y-76940000D02*
X140550000Y-75615000D01*
X136685000Y-75615000D02*
X136685000Y-72085000D01*
X136750000Y-75615000D02*
X136685000Y-75615000D01*
X140615000Y-75615000D02*
X140550000Y-75615000D01*
X140615000Y-75615000D02*
X140615000Y-72085000D01*
X136750000Y-72085000D02*
X136685000Y-72085000D01*
X140615000Y-72085000D02*
X140550000Y-72085000D01*
%TD*%
M02*
