%TF.GenerationSoftware,KiCad,Pcbnew,7.0.8*%
%TF.CreationDate,2023-11-19T15:13:28+01:00*%
%TF.ProjectId,AetherPhylax,41657468-6572-4506-9879-6c61782e6b69,rev?*%
%TF.SameCoordinates,Original*%
%TF.FileFunction,Legend,Top*%
%TF.FilePolarity,Positive*%
%FSLAX46Y46*%
G04 Gerber Fmt 4.6, Leading zero omitted, Abs format (unit mm)*
G04 Created by KiCad (PCBNEW 7.0.8) date 2023-11-19 15:13:28*
%MOMM*%
%LPD*%
G01*
G04 APERTURE LIST*
%ADD10C,0.150000*%
%ADD11C,0.120000*%
%ADD12C,0.100000*%
%ADD13C,0.127000*%
%ADD14C,0.300000*%
%ADD15C,0.200000*%
G04 APERTURE END LIST*
D10*
X159115350Y-88556533D02*
X159115350Y-87856533D01*
X159115350Y-88123200D02*
X159182017Y-88089866D01*
X159182017Y-88089866D02*
X159315350Y-88089866D01*
X159315350Y-88089866D02*
X159382017Y-88123200D01*
X159382017Y-88123200D02*
X159415350Y-88156533D01*
X159415350Y-88156533D02*
X159448684Y-88223200D01*
X159448684Y-88223200D02*
X159448684Y-88423200D01*
X159448684Y-88423200D02*
X159415350Y-88489866D01*
X159415350Y-88489866D02*
X159382017Y-88523200D01*
X159382017Y-88523200D02*
X159315350Y-88556533D01*
X159315350Y-88556533D02*
X159182017Y-88556533D01*
X159182017Y-88556533D02*
X159115350Y-88523200D01*
X159682017Y-88089866D02*
X159848683Y-88556533D01*
X160015350Y-88089866D02*
X159848683Y-88556533D01*
X159848683Y-88556533D02*
X159782017Y-88723200D01*
X159782017Y-88723200D02*
X159748683Y-88756533D01*
X159748683Y-88756533D02*
X159682017Y-88789866D01*
X160715349Y-88556533D02*
X160948683Y-87856533D01*
X160948683Y-87856533D02*
X161182016Y-88556533D01*
X161415349Y-88556533D02*
X161415349Y-87856533D01*
X161815349Y-88556533D02*
X161515349Y-88156533D01*
X161815349Y-87856533D02*
X161415349Y-88256533D01*
X143350000Y-67750000D02*
X161750000Y-67750000D01*
X161750000Y-71850000D01*
X143350000Y-71850000D01*
X143350000Y-67750000D01*
G36*
X167018542Y-68369196D02*
G01*
X167072759Y-68423412D01*
X167135061Y-68548017D01*
X167202255Y-68816791D01*
X167202255Y-69155465D01*
X167135061Y-69424238D01*
X167072758Y-69548844D01*
X167018542Y-69603060D01*
X166902407Y-69661128D01*
X166794960Y-69661128D01*
X166678824Y-69603060D01*
X166624607Y-69548843D01*
X166562304Y-69424237D01*
X166495112Y-69155466D01*
X166495112Y-68816790D01*
X166562304Y-68548018D01*
X166624607Y-68423412D01*
X166678824Y-68369196D01*
X166794960Y-68311128D01*
X166902407Y-68311128D01*
X167018542Y-68369196D01*
G37*
G36*
X165744627Y-69232557D02*
G01*
X165238455Y-69232557D01*
X165491541Y-68473298D01*
X165744627Y-69232557D01*
G37*
G36*
X164375685Y-68369196D02*
G01*
X164429902Y-68423412D01*
X164487969Y-68539546D01*
X164487969Y-68718423D01*
X164429901Y-68834558D01*
X164375685Y-68888774D01*
X164259550Y-68946842D01*
X163780826Y-68946842D01*
X163780826Y-68311128D01*
X164259550Y-68311128D01*
X164375685Y-68369196D01*
G37*
G36*
X167566541Y-70025414D02*
G01*
X163416540Y-70025414D01*
X163416540Y-69736128D01*
X163630826Y-69736128D01*
X163648373Y-69784337D01*
X163692802Y-69809989D01*
X163743326Y-69801080D01*
X163776303Y-69761780D01*
X163780826Y-69736128D01*
X163780826Y-69712411D01*
X164920390Y-69712411D01*
X164921791Y-69763695D01*
X164955828Y-69802080D01*
X165006577Y-69809605D01*
X165050289Y-69782750D01*
X165062692Y-69759845D01*
X165188455Y-69382557D01*
X165794627Y-69382557D01*
X165920390Y-69759845D01*
X165952281Y-69800031D01*
X166002542Y-69810317D01*
X166047656Y-69785888D01*
X166066513Y-69738177D01*
X166062692Y-69712411D01*
X165880122Y-69164700D01*
X166345112Y-69164700D01*
X166346297Y-69167957D01*
X166347351Y-69182890D01*
X166418779Y-69468604D01*
X166420767Y-69471548D01*
X166424458Y-69483955D01*
X166495887Y-69626812D01*
X166497076Y-69627937D01*
X166509936Y-69646304D01*
X166581365Y-69717733D01*
X166582846Y-69718423D01*
X166600857Y-69731782D01*
X166743714Y-69803210D01*
X166748167Y-69803722D01*
X166751603Y-69806605D01*
X166777255Y-69811128D01*
X166920112Y-69811128D01*
X166924325Y-69809594D01*
X166928686Y-69810636D01*
X166953653Y-69803210D01*
X167096510Y-69731782D01*
X167097635Y-69730592D01*
X167116002Y-69717733D01*
X167187431Y-69646304D01*
X167188121Y-69644822D01*
X167201480Y-69626812D01*
X167272908Y-69483955D01*
X167273314Y-69480426D01*
X167278587Y-69468604D01*
X167350016Y-69182891D01*
X167349655Y-69179442D01*
X167352255Y-69164700D01*
X167352255Y-68807557D01*
X167351069Y-68804299D01*
X167350016Y-68789366D01*
X167278587Y-68503652D01*
X167276598Y-68500708D01*
X167272908Y-68488301D01*
X167201480Y-68345444D01*
X167200292Y-68344319D01*
X167187431Y-68325952D01*
X167116002Y-68254524D01*
X167114520Y-68253833D01*
X167096510Y-68240475D01*
X166953653Y-68169046D01*
X166949199Y-68168533D01*
X166945764Y-68165651D01*
X166920112Y-68161128D01*
X166777255Y-68161128D01*
X166773041Y-68162661D01*
X166768680Y-68161620D01*
X166743714Y-68169046D01*
X166600857Y-68240475D01*
X166599733Y-68241661D01*
X166581365Y-68254524D01*
X166509936Y-68325952D01*
X166509244Y-68327433D01*
X166495887Y-68345444D01*
X166424458Y-68488301D01*
X166424051Y-68491829D01*
X166418779Y-68503652D01*
X166347351Y-68789367D01*
X166347711Y-68792815D01*
X166345112Y-68807557D01*
X166345112Y-69164700D01*
X165880122Y-69164700D01*
X165562692Y-68212411D01*
X165561349Y-68210719D01*
X165561291Y-68208561D01*
X165545541Y-68190799D01*
X165530801Y-68172225D01*
X165528687Y-68171792D01*
X165527254Y-68170176D01*
X165503775Y-68166694D01*
X165480540Y-68161939D01*
X165478641Y-68162966D01*
X165476505Y-68162650D01*
X165456277Y-68175077D01*
X165435426Y-68186368D01*
X165434632Y-68188374D01*
X165432793Y-68189505D01*
X165420390Y-68212411D01*
X164920390Y-69712411D01*
X163780826Y-69712411D01*
X163780826Y-69096842D01*
X164277255Y-69096842D01*
X164281468Y-69095308D01*
X164285829Y-69096350D01*
X164310796Y-69088924D01*
X164453653Y-69017496D01*
X164454778Y-69016306D01*
X164473145Y-69003447D01*
X164544574Y-68932018D01*
X164545264Y-68930536D01*
X164558623Y-68912526D01*
X164630051Y-68769669D01*
X164630563Y-68765215D01*
X164633446Y-68761780D01*
X164637969Y-68736128D01*
X164637969Y-68521842D01*
X164636435Y-68517629D01*
X164637478Y-68513268D01*
X164630051Y-68488301D01*
X164558623Y-68345444D01*
X164557435Y-68344319D01*
X164544574Y-68325952D01*
X164473145Y-68254524D01*
X164471663Y-68253833D01*
X164453653Y-68240475D01*
X164310796Y-68169046D01*
X164306342Y-68168533D01*
X164302907Y-68165651D01*
X164277255Y-68161128D01*
X163705826Y-68161128D01*
X163687517Y-68167791D01*
X163668326Y-68171176D01*
X163663975Y-68176360D01*
X163657617Y-68178675D01*
X163647874Y-68195548D01*
X163635349Y-68210476D01*
X163633631Y-68220218D01*
X163631965Y-68223104D01*
X163632543Y-68226386D01*
X163630826Y-68236128D01*
X163630826Y-69736128D01*
X163416540Y-69736128D01*
X163416540Y-67946842D01*
X167566541Y-67946842D01*
X167566541Y-70025414D01*
G37*
X160788095Y-95152438D02*
X160692857Y-95104819D01*
X160692857Y-95104819D02*
X160550000Y-95104819D01*
X160550000Y-95104819D02*
X160407143Y-95152438D01*
X160407143Y-95152438D02*
X160311905Y-95247676D01*
X160311905Y-95247676D02*
X160264286Y-95342914D01*
X160264286Y-95342914D02*
X160216667Y-95533390D01*
X160216667Y-95533390D02*
X160216667Y-95676247D01*
X160216667Y-95676247D02*
X160264286Y-95866723D01*
X160264286Y-95866723D02*
X160311905Y-95961961D01*
X160311905Y-95961961D02*
X160407143Y-96057200D01*
X160407143Y-96057200D02*
X160550000Y-96104819D01*
X160550000Y-96104819D02*
X160645238Y-96104819D01*
X160645238Y-96104819D02*
X160788095Y-96057200D01*
X160788095Y-96057200D02*
X160835714Y-96009580D01*
X160835714Y-96009580D02*
X160835714Y-95676247D01*
X160835714Y-95676247D02*
X160645238Y-95676247D01*
X161264286Y-96104819D02*
X161264286Y-95104819D01*
X161264286Y-95104819D02*
X161835714Y-96104819D01*
X161835714Y-96104819D02*
X161835714Y-95104819D01*
X162311905Y-96104819D02*
X162311905Y-95104819D01*
X162311905Y-95104819D02*
X162550000Y-95104819D01*
X162550000Y-95104819D02*
X162692857Y-95152438D01*
X162692857Y-95152438D02*
X162788095Y-95247676D01*
X162788095Y-95247676D02*
X162835714Y-95342914D01*
X162835714Y-95342914D02*
X162883333Y-95533390D01*
X162883333Y-95533390D02*
X162883333Y-95676247D01*
X162883333Y-95676247D02*
X162835714Y-95866723D01*
X162835714Y-95866723D02*
X162788095Y-95961961D01*
X162788095Y-95961961D02*
X162692857Y-96057200D01*
X162692857Y-96057200D02*
X162550000Y-96104819D01*
X162550000Y-96104819D02*
X162311905Y-96104819D01*
X143954762Y-95304819D02*
X144288095Y-96304819D01*
X144288095Y-96304819D02*
X144621428Y-95304819D01*
X144954762Y-96304819D02*
X144954762Y-95304819D01*
X145430952Y-96304819D02*
X145430952Y-95304819D01*
X145430952Y-95304819D02*
X146002380Y-96304819D01*
X146002380Y-96304819D02*
X146002380Y-95304819D01*
X160917982Y-85602533D02*
X160517982Y-85602533D01*
X160717982Y-85602533D02*
X160717982Y-84902533D01*
X160717982Y-84902533D02*
X160651315Y-85002533D01*
X160651315Y-85002533D02*
X160584649Y-85069200D01*
X160584649Y-85069200D02*
X160517982Y-85102533D01*
X161217982Y-85535866D02*
X161251316Y-85569200D01*
X161251316Y-85569200D02*
X161217982Y-85602533D01*
X161217982Y-85602533D02*
X161184649Y-85569200D01*
X161184649Y-85569200D02*
X161217982Y-85535866D01*
X161217982Y-85535866D02*
X161217982Y-85602533D01*
X161684649Y-84902533D02*
X161751315Y-84902533D01*
X161751315Y-84902533D02*
X161817982Y-84935866D01*
X161817982Y-84935866D02*
X161851315Y-84969200D01*
X161851315Y-84969200D02*
X161884649Y-85035866D01*
X161884649Y-85035866D02*
X161917982Y-85169200D01*
X161917982Y-85169200D02*
X161917982Y-85335866D01*
X161917982Y-85335866D02*
X161884649Y-85469200D01*
X161884649Y-85469200D02*
X161851315Y-85535866D01*
X161851315Y-85535866D02*
X161817982Y-85569200D01*
X161817982Y-85569200D02*
X161751315Y-85602533D01*
X161751315Y-85602533D02*
X161684649Y-85602533D01*
X161684649Y-85602533D02*
X161617982Y-85569200D01*
X161617982Y-85569200D02*
X161584649Y-85535866D01*
X161584649Y-85535866D02*
X161551315Y-85469200D01*
X161551315Y-85469200D02*
X161517982Y-85335866D01*
X161517982Y-85335866D02*
X161517982Y-85169200D01*
X161517982Y-85169200D02*
X161551315Y-85035866D01*
X161551315Y-85035866D02*
X161584649Y-84969200D01*
X161584649Y-84969200D02*
X161617982Y-84935866D01*
X161617982Y-84935866D02*
X161684649Y-84902533D01*
X159184648Y-86729533D02*
X158784648Y-86729533D01*
X158984648Y-86729533D02*
X158984648Y-86029533D01*
X158984648Y-86029533D02*
X158917981Y-86129533D01*
X158917981Y-86129533D02*
X158851315Y-86196200D01*
X158851315Y-86196200D02*
X158784648Y-86229533D01*
X159851315Y-86729533D02*
X159451315Y-86729533D01*
X159651315Y-86729533D02*
X159651315Y-86029533D01*
X159651315Y-86029533D02*
X159584648Y-86129533D01*
X159584648Y-86129533D02*
X159517982Y-86196200D01*
X159517982Y-86196200D02*
X159451315Y-86229533D01*
X160651315Y-85996200D02*
X160051315Y-86896200D01*
X160851315Y-86096200D02*
X160884648Y-86062866D01*
X160884648Y-86062866D02*
X160951315Y-86029533D01*
X160951315Y-86029533D02*
X161117982Y-86029533D01*
X161117982Y-86029533D02*
X161184648Y-86062866D01*
X161184648Y-86062866D02*
X161217982Y-86096200D01*
X161217982Y-86096200D02*
X161251315Y-86162866D01*
X161251315Y-86162866D02*
X161251315Y-86229533D01*
X161251315Y-86229533D02*
X161217982Y-86329533D01*
X161217982Y-86329533D02*
X160817982Y-86729533D01*
X160817982Y-86729533D02*
X161251315Y-86729533D01*
X161484649Y-86029533D02*
X161917982Y-86029533D01*
X161917982Y-86029533D02*
X161684649Y-86296200D01*
X161684649Y-86296200D02*
X161784649Y-86296200D01*
X161784649Y-86296200D02*
X161851315Y-86329533D01*
X161851315Y-86329533D02*
X161884649Y-86362866D01*
X161884649Y-86362866D02*
X161917982Y-86429533D01*
X161917982Y-86429533D02*
X161917982Y-86596200D01*
X161917982Y-86596200D02*
X161884649Y-86662866D01*
X161884649Y-86662866D02*
X161851315Y-86696200D01*
X161851315Y-86696200D02*
X161784649Y-86729533D01*
X161784649Y-86729533D02*
X161584649Y-86729533D01*
X161584649Y-86729533D02*
X161517982Y-86696200D01*
X161517982Y-86696200D02*
X161484649Y-86662866D01*
X158929636Y-83526009D02*
X159882017Y-83526009D01*
X158739160Y-84097438D02*
X159405826Y-82097438D01*
X159405826Y-82097438D02*
X160072493Y-84097438D01*
X161310589Y-84097438D02*
X161310589Y-82097438D01*
X161120112Y-82383152D02*
X161501065Y-82383152D01*
X161501065Y-82383152D02*
X161786779Y-82478390D01*
X161786779Y-82478390D02*
X161977255Y-82668866D01*
X161977255Y-82668866D02*
X162072493Y-82859342D01*
X162072493Y-82859342D02*
X162072493Y-83240295D01*
X162072493Y-83240295D02*
X161977255Y-83430771D01*
X161977255Y-83430771D02*
X161786779Y-83621247D01*
X161786779Y-83621247D02*
X161501065Y-83716485D01*
X161501065Y-83716485D02*
X161120112Y-83716485D01*
X161120112Y-83716485D02*
X160834398Y-83621247D01*
X160834398Y-83621247D02*
X160643922Y-83430771D01*
X160643922Y-83430771D02*
X160548684Y-83240295D01*
X160548684Y-83240295D02*
X160548684Y-82859342D01*
X160548684Y-82859342D02*
X160643922Y-82668866D01*
X160643922Y-82668866D02*
X160834398Y-82478390D01*
X160834398Y-82478390D02*
X161120112Y-82383152D01*
G36*
X164479598Y-82087394D02*
G01*
X164529901Y-82137697D01*
X164587969Y-82253832D01*
X164587969Y-82432709D01*
X164529901Y-82548844D01*
X164475685Y-82603060D01*
X164359550Y-82661128D01*
X163880826Y-82661128D01*
X163880826Y-82025414D01*
X164293656Y-82025414D01*
X164479598Y-82087394D01*
G37*
G36*
X164404257Y-81369196D02*
G01*
X164458473Y-81423412D01*
X164516541Y-81539547D01*
X164516541Y-81646994D01*
X164458473Y-81763129D01*
X164404257Y-81817346D01*
X164288121Y-81875414D01*
X163880826Y-81875414D01*
X163880826Y-81311128D01*
X164288121Y-81311128D01*
X164404257Y-81369196D01*
G37*
G36*
X165844627Y-82232557D02*
G01*
X165338455Y-82232557D01*
X165591541Y-81473298D01*
X165844627Y-82232557D01*
G37*
G36*
X168665402Y-83025414D02*
G01*
X163516540Y-83025414D01*
X163516540Y-82736128D01*
X163730826Y-82736128D01*
X163737489Y-82754436D01*
X163740874Y-82773628D01*
X163746058Y-82777978D01*
X163748373Y-82784337D01*
X163765246Y-82794079D01*
X163780174Y-82806605D01*
X163789916Y-82808322D01*
X163792802Y-82809989D01*
X163796084Y-82809410D01*
X163805826Y-82811128D01*
X164377255Y-82811128D01*
X164381468Y-82809594D01*
X164385829Y-82810636D01*
X164410796Y-82803210D01*
X164553653Y-82731782D01*
X164554778Y-82730592D01*
X164573145Y-82717733D01*
X164578467Y-82712411D01*
X165020390Y-82712411D01*
X165021791Y-82763695D01*
X165055828Y-82802080D01*
X165106577Y-82809605D01*
X165150289Y-82782750D01*
X165162692Y-82759845D01*
X165288455Y-82382557D01*
X165894627Y-82382557D01*
X166020390Y-82759845D01*
X166052281Y-82800031D01*
X166102542Y-82810317D01*
X166147656Y-82785888D01*
X166166513Y-82738177D01*
X166162692Y-82712411D01*
X165666256Y-81223104D01*
X166303394Y-81223104D01*
X166312303Y-81273628D01*
X166351603Y-81306605D01*
X166377255Y-81311128D01*
X166730826Y-81311128D01*
X166730826Y-82736128D01*
X166748373Y-82784337D01*
X166792802Y-82809989D01*
X166843326Y-82801080D01*
X166876303Y-82761780D01*
X166880826Y-82736128D01*
X166880826Y-81311128D01*
X167234398Y-81311128D01*
X167282607Y-81293581D01*
X167308259Y-81249152D01*
X167303666Y-81223104D01*
X167446251Y-81223104D01*
X167455160Y-81273628D01*
X167494460Y-81306605D01*
X167520112Y-81311128D01*
X167873683Y-81311128D01*
X167873683Y-82736128D01*
X167891230Y-82784337D01*
X167935659Y-82809989D01*
X167986183Y-82801080D01*
X168019160Y-82761780D01*
X168023683Y-82736128D01*
X168023683Y-81311128D01*
X168377255Y-81311128D01*
X168425464Y-81293581D01*
X168451116Y-81249152D01*
X168442207Y-81198628D01*
X168402907Y-81165651D01*
X168377255Y-81161128D01*
X167520112Y-81161128D01*
X167471903Y-81178675D01*
X167446251Y-81223104D01*
X167303666Y-81223104D01*
X167299350Y-81198628D01*
X167260050Y-81165651D01*
X167234398Y-81161128D01*
X166377255Y-81161128D01*
X166329046Y-81178675D01*
X166303394Y-81223104D01*
X165666256Y-81223104D01*
X165662692Y-81212411D01*
X165661349Y-81210719D01*
X165661291Y-81208561D01*
X165645541Y-81190799D01*
X165630801Y-81172225D01*
X165628687Y-81171792D01*
X165627254Y-81170176D01*
X165603775Y-81166694D01*
X165580540Y-81161939D01*
X165578641Y-81162966D01*
X165576505Y-81162650D01*
X165556277Y-81175077D01*
X165535426Y-81186368D01*
X165534632Y-81188374D01*
X165532793Y-81189505D01*
X165520390Y-81212411D01*
X165020390Y-82712411D01*
X164578467Y-82712411D01*
X164644574Y-82646304D01*
X164645264Y-82644822D01*
X164658623Y-82626812D01*
X164730051Y-82483955D01*
X164730563Y-82479501D01*
X164733446Y-82476066D01*
X164737969Y-82450414D01*
X164737969Y-82236128D01*
X164736435Y-82231915D01*
X164737478Y-82227554D01*
X164730051Y-82202587D01*
X164658623Y-82059730D01*
X164657436Y-82058606D01*
X164644574Y-82040238D01*
X164573145Y-81968809D01*
X164569081Y-81966914D01*
X164566734Y-81963093D01*
X164543829Y-81950691D01*
X164497231Y-81935158D01*
X164501717Y-81932018D01*
X164573145Y-81860590D01*
X164573837Y-81859104D01*
X164587194Y-81841098D01*
X164658623Y-81698241D01*
X164659135Y-81693787D01*
X164662018Y-81690352D01*
X164666541Y-81664700D01*
X164666541Y-81521842D01*
X164665007Y-81517628D01*
X164666049Y-81513267D01*
X164658623Y-81488301D01*
X164587194Y-81345444D01*
X164586004Y-81344318D01*
X164573145Y-81325952D01*
X164501717Y-81254524D01*
X164500235Y-81253833D01*
X164482225Y-81240475D01*
X164339367Y-81169046D01*
X164334913Y-81168533D01*
X164331478Y-81165651D01*
X164305826Y-81161128D01*
X163805826Y-81161128D01*
X163787517Y-81167791D01*
X163768326Y-81171176D01*
X163763975Y-81176360D01*
X163757617Y-81178675D01*
X163747874Y-81195548D01*
X163735349Y-81210476D01*
X163733631Y-81220218D01*
X163731965Y-81223104D01*
X163732543Y-81226386D01*
X163730826Y-81236128D01*
X163730826Y-82736128D01*
X163516540Y-82736128D01*
X163516540Y-80946842D01*
X168665402Y-80946842D01*
X168665402Y-83025414D01*
G37*
G36*
X141554601Y-70025414D02*
G01*
X137976315Y-70025414D01*
X137976315Y-69736128D01*
X138190601Y-69736128D01*
X138208148Y-69784337D01*
X138252577Y-69809989D01*
X138303101Y-69801080D01*
X138336078Y-69761780D01*
X138340601Y-69736128D01*
X138340601Y-69729592D01*
X138762316Y-69729592D01*
X138768157Y-69751394D01*
X138772078Y-69773628D01*
X138774705Y-69775832D01*
X138775593Y-69779146D01*
X138794084Y-69792094D01*
X138811378Y-69806605D01*
X138815962Y-69807413D01*
X138817619Y-69808573D01*
X138820907Y-69808285D01*
X138837030Y-69811128D01*
X139765602Y-69811128D01*
X139813811Y-69793581D01*
X139839463Y-69749152D01*
X139830554Y-69698628D01*
X139791254Y-69665651D01*
X139765602Y-69661128D01*
X139018096Y-69661128D01*
X139585953Y-69093271D01*
X140262030Y-69093271D01*
X140263215Y-69096528D01*
X140264269Y-69111461D01*
X140335697Y-69397175D01*
X140337685Y-69400119D01*
X140341376Y-69412526D01*
X140412805Y-69555383D01*
X140413991Y-69556506D01*
X140426854Y-69574875D01*
X140569711Y-69717733D01*
X140573774Y-69719627D01*
X140576122Y-69723449D01*
X140599027Y-69735851D01*
X140813313Y-69807279D01*
X140814947Y-69807234D01*
X140837030Y-69811128D01*
X140979887Y-69811128D01*
X140981425Y-69810567D01*
X141003604Y-69807279D01*
X141217890Y-69735851D01*
X141221401Y-69733063D01*
X141225870Y-69732673D01*
X141247206Y-69717733D01*
X141318634Y-69646304D01*
X141340315Y-69599807D01*
X141327038Y-69550252D01*
X141285012Y-69520826D01*
X141233904Y-69525298D01*
X141212568Y-69540238D01*
X141153658Y-69599148D01*
X140967717Y-69661128D01*
X140849200Y-69661128D01*
X140663258Y-69599147D01*
X140541525Y-69477415D01*
X140479222Y-69352808D01*
X140412030Y-69084037D01*
X140412030Y-68888218D01*
X140479222Y-68619447D01*
X140541525Y-68494841D01*
X140663258Y-68373108D01*
X140849200Y-68311128D01*
X140967717Y-68311128D01*
X141153659Y-68373109D01*
X141212568Y-68432018D01*
X141259064Y-68453699D01*
X141308619Y-68440422D01*
X141338045Y-68398396D01*
X141333574Y-68347289D01*
X141318634Y-68325952D01*
X141247206Y-68254524D01*
X141243142Y-68252629D01*
X141240795Y-68248808D01*
X141217890Y-68236406D01*
X141003604Y-68164977D01*
X141001969Y-68165021D01*
X140979887Y-68161128D01*
X140837030Y-68161128D01*
X140835492Y-68161687D01*
X140813312Y-68164977D01*
X140599027Y-68236406D01*
X140595514Y-68239193D01*
X140591048Y-68239584D01*
X140569711Y-68254524D01*
X140426854Y-68397381D01*
X140426163Y-68398862D01*
X140412805Y-68416873D01*
X140341376Y-68559730D01*
X140340969Y-68563258D01*
X140335697Y-68575081D01*
X140264269Y-68860795D01*
X140264629Y-68864243D01*
X140262030Y-68878985D01*
X140262030Y-69093271D01*
X139585953Y-69093271D01*
X139747206Y-68932018D01*
X139749100Y-68927955D01*
X139752921Y-68925608D01*
X139765324Y-68902702D01*
X139836753Y-68688418D01*
X139836708Y-68686782D01*
X139840602Y-68664700D01*
X139840602Y-68521842D01*
X139839068Y-68517628D01*
X139840110Y-68513267D01*
X139832684Y-68488301D01*
X139761255Y-68345444D01*
X139760065Y-68344318D01*
X139747206Y-68325952D01*
X139675778Y-68254524D01*
X139674296Y-68253833D01*
X139656286Y-68240475D01*
X139513428Y-68169046D01*
X139508974Y-68168533D01*
X139505539Y-68165651D01*
X139479887Y-68161128D01*
X139122745Y-68161128D01*
X139118531Y-68162661D01*
X139114170Y-68161620D01*
X139089204Y-68169046D01*
X138946346Y-68240475D01*
X138945220Y-68241664D01*
X138926854Y-68254524D01*
X138855426Y-68325952D01*
X138833745Y-68372449D01*
X138847022Y-68422003D01*
X138889048Y-68451430D01*
X138940155Y-68446958D01*
X138961492Y-68432018D01*
X139024314Y-68369196D01*
X139140450Y-68311128D01*
X139462182Y-68311128D01*
X139578318Y-68369196D01*
X139632534Y-68423412D01*
X139690602Y-68539547D01*
X139690602Y-68652529D01*
X139628621Y-68838470D01*
X138783997Y-69683095D01*
X138774459Y-69703548D01*
X138763169Y-69723104D01*
X138763765Y-69726484D01*
X138762316Y-69729592D01*
X138340601Y-69729592D01*
X138340601Y-68236128D01*
X138323054Y-68187919D01*
X138278625Y-68162267D01*
X138228101Y-68171176D01*
X138195124Y-68210476D01*
X138190601Y-68236128D01*
X138190601Y-69736128D01*
X137976315Y-69736128D01*
X137976315Y-67946842D01*
X141554601Y-67946842D01*
X141554601Y-70025414D01*
G37*
G36*
X141583458Y-83024603D02*
G01*
X137933486Y-83024603D01*
X137933486Y-81234079D01*
X138147772Y-81234079D01*
X138151593Y-81259845D01*
X138651593Y-82759845D01*
X138652935Y-82761536D01*
X138652994Y-82763695D01*
X138668743Y-82781456D01*
X138683484Y-82800031D01*
X138685597Y-82800463D01*
X138687031Y-82802080D01*
X138710501Y-82805560D01*
X138733745Y-82810317D01*
X138735644Y-82809288D01*
X138737780Y-82809605D01*
X138757993Y-82797186D01*
X138778859Y-82785888D01*
X138779652Y-82783880D01*
X138781492Y-82782750D01*
X138793895Y-82759845D01*
X138801801Y-82736128D01*
X139647743Y-82736128D01*
X139665290Y-82784337D01*
X139709719Y-82809989D01*
X139760243Y-82801080D01*
X139793220Y-82761780D01*
X139797743Y-82736128D01*
X140362029Y-82736128D01*
X140379576Y-82784337D01*
X140424005Y-82809989D01*
X140474529Y-82801080D01*
X140507506Y-82761780D01*
X140512029Y-82736128D01*
X140512029Y-81518544D01*
X141229054Y-82773339D01*
X141234347Y-82777820D01*
X141236719Y-82784337D01*
X141253456Y-82794000D01*
X141268207Y-82806490D01*
X141275141Y-82806520D01*
X141281148Y-82809989D01*
X141300181Y-82806632D01*
X141319509Y-82806719D01*
X141324842Y-82802284D01*
X141331672Y-82801080D01*
X141344096Y-82786273D01*
X141358956Y-82773917D01*
X141360190Y-82767093D01*
X141364649Y-82761780D01*
X141369172Y-82736128D01*
X141369172Y-81236128D01*
X141351625Y-81187919D01*
X141307196Y-81162267D01*
X141256672Y-81171176D01*
X141223695Y-81210476D01*
X141219172Y-81236128D01*
X141219172Y-82453711D01*
X140502147Y-81198918D01*
X140496854Y-81194436D01*
X140494482Y-81187919D01*
X140477742Y-81178254D01*
X140462994Y-81165766D01*
X140456059Y-81165735D01*
X140450053Y-81162267D01*
X140431019Y-81165623D01*
X140411692Y-81165537D01*
X140406358Y-81169971D01*
X140399529Y-81171176D01*
X140387104Y-81185982D01*
X140372245Y-81198339D01*
X140371010Y-81205162D01*
X140366552Y-81210476D01*
X140362029Y-81236128D01*
X140362029Y-82736128D01*
X139797743Y-82736128D01*
X139797743Y-81236128D01*
X139780196Y-81187919D01*
X139735767Y-81162267D01*
X139685243Y-81171176D01*
X139652266Y-81210476D01*
X139647743Y-81236128D01*
X139647743Y-82736128D01*
X138801801Y-82736128D01*
X139293895Y-81259845D01*
X139292494Y-81208561D01*
X139258457Y-81170176D01*
X139207708Y-81162650D01*
X139163996Y-81189505D01*
X139151593Y-81212411D01*
X138722744Y-82498958D01*
X138293895Y-81212411D01*
X138262004Y-81172225D01*
X138211743Y-81161939D01*
X138166629Y-81186368D01*
X138147772Y-81234079D01*
X137933486Y-81234079D01*
X137933486Y-80947653D01*
X141583458Y-80947653D01*
X141583458Y-83024603D01*
G37*
D11*
%TO.C,J1*%
X144355000Y-93265000D02*
X145050000Y-93265000D01*
X144355000Y-93950000D02*
X144355000Y-93265000D01*
X144355000Y-94635000D02*
X144355000Y-94510000D01*
X144355000Y-94635000D02*
X144441724Y-94635000D01*
X144355000Y-94635000D02*
X145745000Y-94635000D01*
X145658276Y-94635000D02*
X145745000Y-94635000D01*
X145745000Y-94635000D02*
X145745000Y-94510000D01*
%TO.C,U1*%
X151290000Y-92210000D02*
X151290000Y-91735000D01*
X151765000Y-88490000D02*
X151290000Y-88490000D01*
X151765000Y-92210000D02*
X151290000Y-92210000D01*
X154535000Y-88490000D02*
X155010000Y-88490000D01*
X154535000Y-92210000D02*
X155010000Y-92210000D01*
X155010000Y-88490000D02*
X155010000Y-88965000D01*
X155010000Y-92210000D02*
X155010000Y-91735000D01*
D12*
%TO.C,U2*%
X151350000Y-62325000D02*
X151100000Y-62325000D01*
X153900000Y-62325000D02*
X153750000Y-62325000D01*
X153910000Y-62325000D02*
X153910000Y-62175000D01*
X151200000Y-59775000D02*
X151200000Y-59625000D01*
X151200000Y-59625000D02*
X151350000Y-59625000D01*
X153900000Y-59625000D02*
X153900000Y-59775000D01*
X153900000Y-59625000D02*
X153750000Y-59625000D01*
D11*
%TO.C,COUT1*%
X156411252Y-83485000D02*
X155888748Y-83485000D01*
X156411252Y-82015000D02*
X155888748Y-82015000D01*
D13*
%TO.C,BATT1*%
X163550000Y-89650000D02*
X166250000Y-89650000D01*
X168950000Y-89650000D02*
X169550000Y-89650000D01*
X169550000Y-89650000D02*
X169550000Y-83650000D01*
X163550000Y-88100000D02*
X163550000Y-89650000D01*
X163550000Y-85200000D02*
X163550000Y-83650000D01*
X163550000Y-83650000D02*
X166250000Y-83650000D01*
X169550000Y-83650000D02*
X168950000Y-83650000D01*
D14*
X162200000Y-87450000D02*
G75*
G03*
X162200000Y-87450000I-100000J0D01*
G01*
D11*
%TO.C,J2*%
X160555000Y-93165000D02*
X161250000Y-93165000D01*
X160555000Y-93850000D02*
X160555000Y-93165000D01*
X160555000Y-94535000D02*
X160555000Y-94410000D01*
X160555000Y-94535000D02*
X160641724Y-94535000D01*
X160555000Y-94535000D02*
X161945000Y-94535000D01*
X161858276Y-94535000D02*
X161945000Y-94535000D01*
X161945000Y-94535000D02*
X161945000Y-94410000D01*
%TO.C,CSTOR1*%
X148811252Y-84885000D02*
X148288748Y-84885000D01*
X148811252Y-83415000D02*
X148288748Y-83415000D01*
%TO.C,ROV2*%
X151877064Y-94885000D02*
X151422936Y-94885000D01*
X151877064Y-93415000D02*
X151422936Y-93415000D01*
%TO.C,ROK2*%
X156115000Y-94677064D02*
X156115000Y-94222936D01*
X157585000Y-94677064D02*
X157585000Y-94222936D01*
%TO.C,CBYP1*%
X152288748Y-84515000D02*
X152811252Y-84515000D01*
X152288748Y-85985000D02*
X152811252Y-85985000D01*
%TO.C,ROUT1*%
X159115000Y-91077064D02*
X159115000Y-90622936D01*
X160585000Y-91077064D02*
X160585000Y-90622936D01*
%TO.C,R6*%
X160122936Y-74315000D02*
X160577064Y-74315000D01*
X160122936Y-75785000D02*
X160577064Y-75785000D01*
%TO.C,RST1*%
X149020000Y-77280000D02*
X149020000Y-81420000D01*
X148720000Y-77280000D02*
X149020000Y-77280000D01*
X145880000Y-77280000D02*
X146180000Y-77280000D01*
X149020000Y-81420000D02*
X148720000Y-81420000D01*
X146180000Y-81420000D02*
X145880000Y-81420000D01*
X145880000Y-81420000D02*
X145880000Y-77280000D01*
%TO.C,C1*%
X152388748Y-79515000D02*
X152911252Y-79515000D01*
X152388748Y-80985000D02*
X152911252Y-80985000D01*
%TO.C,RN1*%
X145920000Y-75250000D02*
X145920000Y-74250000D01*
X143980000Y-75250000D02*
X143980000Y-74250000D01*
%TO.C,ROK1*%
X156915000Y-91077064D02*
X156915000Y-90622936D01*
X158385000Y-91077064D02*
X158385000Y-90622936D01*
D13*
%TO.C,I2C1*%
X141512500Y-70650000D02*
X138772500Y-70650000D01*
X136152500Y-70650000D02*
X135512500Y-70650000D01*
X135512500Y-70650000D02*
X135512500Y-79650000D01*
X141512500Y-72180000D02*
X141512500Y-70650000D01*
X141512500Y-78120000D02*
X141512500Y-79650000D01*
X141512500Y-79650000D02*
X138772500Y-79650000D01*
X135512500Y-79650000D02*
X136152500Y-79650000D01*
D15*
X143162500Y-72900000D02*
G75*
G03*
X143162500Y-72900000I-100000J0D01*
G01*
D11*
%TO.C,C2*%
X152811252Y-67385000D02*
X152288748Y-67385000D01*
X152811252Y-65915000D02*
X152288748Y-65915000D01*
D13*
%TO.C,VIN1*%
X141550000Y-83650000D02*
X138850000Y-83650000D01*
X136150000Y-83650000D02*
X135550000Y-83650000D01*
X135550000Y-83650000D02*
X135550000Y-89650000D01*
X141550000Y-85200000D02*
X141550000Y-83650000D01*
X141550000Y-88100000D02*
X141550000Y-89650000D01*
X141550000Y-89650000D02*
X138850000Y-89650000D01*
X135550000Y-89650000D02*
X136150000Y-89650000D01*
D14*
X143100000Y-85850000D02*
G75*
G03*
X143100000Y-85850000I-100000J0D01*
G01*
D11*
%TO.C,R4*%
X160215000Y-80077064D02*
X160215000Y-79622936D01*
X161685000Y-80077064D02*
X161685000Y-79622936D01*
%TO.C,U3*%
X155460000Y-77960000D02*
X154985000Y-77960000D01*
X150240000Y-77485000D02*
X150240000Y-77960000D01*
X155460000Y-77485000D02*
X155460000Y-77960000D01*
X150240000Y-73215000D02*
X150240000Y-72740000D01*
X155460000Y-73215000D02*
X155460000Y-72740000D01*
X150240000Y-72740000D02*
X150715000Y-72740000D01*
X155460000Y-72740000D02*
X154985000Y-72740000D01*
%TO.C,ROK3*%
X153915000Y-94677064D02*
X153915000Y-94222936D01*
X155385000Y-94677064D02*
X155385000Y-94222936D01*
D13*
%TO.C,L2*%
X154750000Y-84380000D02*
X157750000Y-84380000D01*
X154750000Y-87720000D02*
X157750000Y-87720000D01*
D11*
%TO.C,ROV1*%
X148377064Y-94885000D02*
X147922936Y-94885000D01*
X148377064Y-93415000D02*
X147922936Y-93415000D01*
%TO.C,C3*%
X145285000Y-79388748D02*
X145285000Y-79911252D01*
X143815000Y-79388748D02*
X143815000Y-79911252D01*
%TO.C,L1*%
X146163748Y-85640000D02*
X148936252Y-85640000D01*
X146163748Y-89060000D02*
X148936252Y-89060000D01*
%TO.C,R3*%
X159422936Y-76315000D02*
X159877064Y-76315000D01*
X159422936Y-77785000D02*
X159877064Y-77785000D01*
%TO.C,CREF1*%
X148411252Y-92785000D02*
X147888748Y-92785000D01*
X148411252Y-91315000D02*
X147888748Y-91315000D01*
%TO.C,ROUT2*%
X158315000Y-94677064D02*
X158315000Y-94222936D01*
X159785000Y-94677064D02*
X159785000Y-94222936D01*
%TO.C,CIN1*%
X144611252Y-91185000D02*
X144088748Y-91185000D01*
X144611252Y-89715000D02*
X144088748Y-89715000D01*
%TO.C,R5*%
X160122936Y-72315000D02*
X160577064Y-72315000D01*
X160122936Y-73785000D02*
X160577064Y-73785000D01*
D13*
%TO.C,PA1*%
X169527540Y-71400700D02*
X169522460Y-78899300D01*
X168777540Y-71400700D02*
X169527540Y-71400700D01*
X164527540Y-71400700D02*
X166377540Y-71400700D01*
X164527540Y-71400700D02*
X164527540Y-73050700D01*
X163527540Y-71400700D02*
X164527540Y-71400700D01*
X163527540Y-73050700D02*
X163527540Y-71400700D01*
X164522462Y-77249300D02*
X164522462Y-78899300D01*
X169522460Y-78899300D02*
X168772460Y-78899300D01*
X166372460Y-78899300D02*
X164522462Y-78899300D01*
X164522462Y-78899300D02*
X163522462Y-78899300D01*
X163522462Y-78899300D02*
X163522462Y-77249300D01*
D12*
X163099460Y-77449300D02*
G75*
G03*
X163099460Y-77449300I-127000J0D01*
G01*
%TD*%
M02*
