%TF.GenerationSoftware,KiCad,Pcbnew,7.0.8*%
%TF.CreationDate,2023-11-19T15:13:28+01:00*%
%TF.ProjectId,AetherPhylax,41657468-6572-4506-9879-6c61782e6b69,rev?*%
%TF.SameCoordinates,Original*%
%TF.FileFunction,Soldermask,Top*%
%TF.FilePolarity,Negative*%
%FSLAX46Y46*%
G04 Gerber Fmt 4.6, Leading zero omitted, Abs format (unit mm)*
G04 Created by KiCad (PCBNEW 7.0.8) date 2023-11-19 15:13:28*
%MOMM*%
%LPD*%
G01*
G04 APERTURE LIST*
G04 Aperture macros list*
%AMRoundRect*
0 Rectangle with rounded corners*
0 $1 Rounding radius*
0 $2 $3 $4 $5 $6 $7 $8 $9 X,Y pos of 4 corners*
0 Add a 4 corners polygon primitive as box body*
4,1,4,$2,$3,$4,$5,$6,$7,$8,$9,$2,$3,0*
0 Add four circle primitives for the rounded corners*
1,1,$1+$1,$2,$3*
1,1,$1+$1,$4,$5*
1,1,$1+$1,$6,$7*
1,1,$1+$1,$8,$9*
0 Add four rect primitives between the rounded corners*
20,1,$1+$1,$2,$3,$4,$5,0*
20,1,$1+$1,$4,$5,$6,$7,0*
20,1,$1+$1,$6,$7,$8,$9,0*
20,1,$1+$1,$8,$9,$2,$3,0*%
G04 Aperture macros list end*
%ADD10R,0.850000X0.850000*%
%ADD11RoundRect,0.062500X-0.375000X-0.062500X0.375000X-0.062500X0.375000X0.062500X-0.375000X0.062500X0*%
%ADD12RoundRect,0.062500X-0.062500X-0.375000X0.062500X-0.375000X0.062500X0.375000X-0.062500X0.375000X0*%
%ADD13R,2.000000X2.000000*%
%ADD14R,0.500000X0.350000*%
%ADD15RoundRect,0.250000X0.250000X0.475000X-0.250000X0.475000X-0.250000X-0.475000X0.250000X-0.475000X0*%
%ADD16R,2.500000X0.700000*%
%ADD17R,1.900000X1.100000*%
%ADD18RoundRect,0.250000X0.262500X0.450000X-0.262500X0.450000X-0.262500X-0.450000X0.262500X-0.450000X0*%
%ADD19RoundRect,0.250000X0.450000X-0.262500X0.450000X0.262500X-0.450000X0.262500X-0.450000X-0.262500X0*%
%ADD20RoundRect,0.250000X-0.250000X-0.475000X0.250000X-0.475000X0.250000X0.475000X-0.250000X0.475000X0*%
%ADD21RoundRect,0.250000X-0.262500X-0.450000X0.262500X-0.450000X0.262500X0.450000X-0.262500X0.450000X0*%
%ADD22RoundRect,0.200000X-0.800000X0.200000X-0.800000X-0.200000X0.800000X-0.200000X0.800000X0.200000X0*%
%ADD23R,0.640000X0.700000*%
%ADD24C,5.600000*%
%ADD25RoundRect,0.062500X0.062500X-0.375000X0.062500X0.375000X-0.062500X0.375000X-0.062500X-0.375000X0*%
%ADD26RoundRect,0.062500X0.375000X-0.062500X0.375000X0.062500X-0.375000X0.062500X-0.375000X-0.062500X0*%
%ADD27R,3.500000X3.500000*%
%ADD28RoundRect,0.102000X-0.400000X-1.350000X0.400000X-1.350000X0.400000X1.350000X-0.400000X1.350000X0*%
%ADD29RoundRect,0.102000X0.400000X1.350000X-0.400000X1.350000X-0.400000X-1.350000X0.400000X-1.350000X0*%
%ADD30RoundRect,0.250000X-0.475000X0.250000X-0.475000X-0.250000X0.475000X-0.250000X0.475000X0.250000X0*%
%ADD31RoundRect,0.250000X-0.312500X-1.450000X0.312500X-1.450000X0.312500X1.450000X-0.312500X1.450000X0*%
%ADD32R,2.300000X0.700000*%
G04 APERTURE END LIST*
D10*
%TO.C,J1*%
X145050000Y-93950000D03*
%TD*%
D11*
%TO.C,U1*%
X151462500Y-89350000D03*
X151462500Y-89850000D03*
X151462500Y-90350000D03*
X151462500Y-90850000D03*
X151462500Y-91350000D03*
D12*
X152150000Y-92037500D03*
X152650000Y-92037500D03*
X153150000Y-92037500D03*
X153650000Y-92037500D03*
X154150000Y-92037500D03*
D11*
X154837500Y-91350000D03*
X154837500Y-90850000D03*
X154837500Y-90350000D03*
X154837500Y-89850000D03*
X154837500Y-89350000D03*
D12*
X154150000Y-88662500D03*
X153650000Y-88662500D03*
X153150000Y-88662500D03*
X152650000Y-88662500D03*
X152150000Y-88662500D03*
D13*
X153150000Y-90350000D03*
%TD*%
D14*
%TO.C,U2*%
X151525000Y-61950000D03*
X151525000Y-61300000D03*
X151525000Y-60650000D03*
X151525000Y-60000000D03*
X153575000Y-60000000D03*
X153575000Y-60650000D03*
X153575000Y-61300000D03*
X153575000Y-61950000D03*
%TD*%
D15*
%TO.C,COUT1*%
X157100000Y-82750000D03*
X155200000Y-82750000D03*
%TD*%
D16*
%TO.C,BATT1*%
X164000000Y-87400000D03*
X164000000Y-85900000D03*
D17*
X167600000Y-89350000D03*
X167600000Y-83950000D03*
%TD*%
D10*
%TO.C,J2*%
X161250000Y-93850000D03*
%TD*%
D15*
%TO.C,CSTOR1*%
X149500000Y-84150000D03*
X147600000Y-84150000D03*
%TD*%
D18*
%TO.C,ROV2*%
X152562500Y-94150000D03*
X150737500Y-94150000D03*
%TD*%
D19*
%TO.C,ROK2*%
X156850000Y-95362500D03*
X156850000Y-93537500D03*
%TD*%
D20*
%TO.C,CBYP1*%
X151600000Y-85250000D03*
X153500000Y-85250000D03*
%TD*%
D19*
%TO.C,ROUT1*%
X159850000Y-91762500D03*
X159850000Y-89937500D03*
%TD*%
D21*
%TO.C,R6*%
X159437500Y-75050000D03*
X161262500Y-75050000D03*
%TD*%
D22*
%TO.C,RST1*%
X147450000Y-77250000D03*
X147450000Y-81450000D03*
%TD*%
D20*
%TO.C,C1*%
X151700000Y-80250000D03*
X153600000Y-80250000D03*
%TD*%
D23*
%TO.C,RN1*%
X145420000Y-74050000D03*
X144480000Y-74050000D03*
X144480000Y-75450000D03*
X145420000Y-75450000D03*
%TD*%
D19*
%TO.C,ROK1*%
X157650000Y-91762500D03*
X157650000Y-89937500D03*
%TD*%
D16*
%TO.C,I2C1*%
X141062500Y-72900000D03*
X141062500Y-74400000D03*
X141062500Y-75900000D03*
X141062500Y-77400000D03*
D17*
X137462500Y-70950000D03*
X137462500Y-79350000D03*
%TD*%
D15*
%TO.C,C2*%
X153500000Y-66650000D03*
X151600000Y-66650000D03*
%TD*%
D24*
%TO.C,H2*%
X166550000Y-93750000D03*
%TD*%
D16*
%TO.C,VIN1*%
X141100000Y-85900000D03*
X141100000Y-87400000D03*
D17*
X137500000Y-83950000D03*
X137500000Y-89350000D03*
%TD*%
D19*
%TO.C,R4*%
X160950000Y-80762500D03*
X160950000Y-78937500D03*
%TD*%
D25*
%TO.C,U3*%
X151100000Y-77787500D03*
X151600000Y-77787500D03*
X152100000Y-77787500D03*
X152600000Y-77787500D03*
X153100000Y-77787500D03*
X153600000Y-77787500D03*
X154100000Y-77787500D03*
X154600000Y-77787500D03*
D26*
X155287500Y-77100000D03*
X155287500Y-76600000D03*
X155287500Y-76100000D03*
X155287500Y-75600000D03*
X155287500Y-75100000D03*
X155287500Y-74600000D03*
X155287500Y-74100000D03*
X155287500Y-73600000D03*
D25*
X154600000Y-72912500D03*
X154100000Y-72912500D03*
X153600000Y-72912500D03*
X153100000Y-72912500D03*
X152600000Y-72912500D03*
X152100000Y-72912500D03*
X151600000Y-72912500D03*
X151100000Y-72912500D03*
D26*
X150412500Y-73600000D03*
X150412500Y-74100000D03*
X150412500Y-74600000D03*
X150412500Y-75100000D03*
X150412500Y-75600000D03*
X150412500Y-76100000D03*
X150412500Y-76600000D03*
X150412500Y-77100000D03*
D27*
X152850000Y-75350000D03*
%TD*%
D24*
%TO.C,H1*%
X138550000Y-93750000D03*
%TD*%
D19*
%TO.C,ROK3*%
X154650000Y-95362500D03*
X154650000Y-93537500D03*
%TD*%
D28*
%TO.C,L2*%
X155150000Y-86050000D03*
D29*
X157350000Y-86050000D03*
%TD*%
D18*
%TO.C,ROV1*%
X149062500Y-94150000D03*
X147237500Y-94150000D03*
%TD*%
D30*
%TO.C,C3*%
X144550000Y-78700000D03*
X144550000Y-80600000D03*
%TD*%
D31*
%TO.C,L1*%
X145412500Y-87350000D03*
X149687500Y-87350000D03*
%TD*%
D21*
%TO.C,R3*%
X158737500Y-77050000D03*
X160562500Y-77050000D03*
%TD*%
D15*
%TO.C,CREF1*%
X149100000Y-92050000D03*
X147200000Y-92050000D03*
%TD*%
D19*
%TO.C,ROUT2*%
X159050000Y-95362500D03*
X159050000Y-93537500D03*
%TD*%
D15*
%TO.C,CIN1*%
X145300000Y-90450000D03*
X143400000Y-90450000D03*
%TD*%
D21*
%TO.C,R5*%
X159437500Y-73050000D03*
X161262500Y-73050000D03*
%TD*%
D32*
%TO.C,PA1*%
X164072462Y-76649300D03*
X164077540Y-75150700D03*
X164077540Y-73650700D03*
D17*
X167572460Y-78599300D03*
X167577540Y-71700700D03*
%TD*%
M02*
