M48
; DRILL file {KiCad 7.0.8} date Sun Nov 19 15:13:26 2023
; FORMAT={-:-/ absolute / inch / decimal}
; #@! TF.CreationDate,2023-11-19T15:13:26+01:00
; #@! TF.GenerationSoftware,Kicad,Pcbnew,7.0.8
; #@! TF.FileFunction,Plated,1,2,PTH
FMAT,2
INCH
; #@! TA.AperFunction,Plated,PTH,ViaDrill
T1C0.0079
; #@! TA.AperFunction,Plated,PTH,ViaDrill
T2C0.0118
; #@! TA.AperFunction,Plated,PTH,ComponentDrill
T3C0.0197
; #@! TA.AperFunction,Plated,PTH,ComponentDrill
T4C0.1260
%
G90
G05
T1
X5.6358Y-3.3484
X5.8155Y-2.9892
X5.8189Y-2.846
X5.8508Y-2.8451
X5.876Y-2.9272
X5.8799Y-2.8839
X5.8799Y-3.0217
X5.8996Y-3.5728
X5.9072Y-3.1046
X5.9193Y-3.624
X5.939Y-3.4311
X5.9527Y-2.4833
X5.9941Y-2.3878
X6.0059Y-3.5335
X6.0059Y-3.5807
X6.0529Y-3.1046
X6.0531Y-3.5335
X6.0531Y-3.5807
X6.1238Y-3.0652
X6.1398Y-3.4705
X6.1516Y-3.061
X6.1518Y-3.0293
X6.1519Y-2.9977
X6.1909Y-2.9524
X6.2028Y-3.0374
X6.2148Y-2.9744
X6.4862Y-3.1673
T2
X5.6083Y-2.6988
X5.6083Y-2.7303
X5.9705Y-3.2657
X5.9744Y-2.9193
X5.9744Y-3.0138
X6.0098Y-3.2657
X6.0177Y-2.9193
X6.0177Y-3.0138
X6.028Y-3.4231
X6.0492Y-3.2657
X6.0571Y-2.9193
X6.061Y-3.0138
X6.1516Y-3.5453
X6.1831Y-2.8563
X6.1949Y-3.3051
X6.1954Y-3.1703
X6.2146Y-2.8563
X6.2224Y-3.1398
X6.3524Y-3.5453
X6.4035Y-2.6988
X6.4035Y-2.7303
X6.4154Y-2.8445
X6.4154Y-3.4783
X6.4469Y-2.8445
X6.5295Y-3.0177
T3
X5.7106Y-3.6988
X6.3484Y-3.6949
T4
X5.4547Y-3.6909
X6.5571Y-3.6909
T0
M30
